<svg xmlns="http://www.w3.org/2000/svg" viewBox="0 0 2197 2197"><filter id="b"><feGaussianBlur stdDeviation="10" /></filter><path fill="#39452c" d="M0 0h2197v2197H0z"/><g filter="url(#b)" fill-opacity=".5"><path fill="#ab9f8f" d="M1675.8 2330l-639-1455.5-944.3 534.2L1123 2213.2z"/><path fill="#b3e8ff" d="M1684.3 2094.2l548.8-249.2 97 346.3-542.8 107z"/><path fill="#ffe7d8" d="M1229.7 1713.2l-207.2-239.1-17.9-918.3 178 679z"/><path fill="#0d2600" d="M1034.7-133l200 1839.2 137.2 147.6L2330 34.8z"/><path fill="#bdc3d9" d="M1526.6 1824.5l90.6 115.4-41.5 305.5-511-395.8z"/><path fill="#001300" d="M92.4 1323L-133 21.4 1311.6-133l-195.3 730.2z"/><path d="M66.5 2330L659 1563.3l-339.4 167L-133 923.2z"/><path fill="#fff3fe" d="M1284.9 836.4L871 798.5l107.7-108.9 140 17.2z"/><path fill="#363022" d="M1160 1901L865 758.3 677.6 1997.6l398.2-184.3z"/><path fill="#bacd8c" d="M552.1 1276.4L433 1674.3l-141.5 19.5-121.7-429z"/><path fill="#93a195" d="M2326.2 830.2l-620.7 65.3 396.2 125.4 200.8 596.5z"/><path fill="#547690" d="M1430 1459l76.5 538 213.2-602.4-139.5-162.2z"/><path fill="#0e0504" d="M1280.1 2043.7l-307.4-252-95.8 13.7 323.6 359.1z"/><path fill="#94b274" d="M1391.2 544.3l179.4-24.2-15.7-149.7-263.3 54.5z"/><path fill="#030c00" d="M1542.7-133H2330v759.7l-399.9 174.6z"/><path fill="#212f0d" d="M1648.5 770.5l681.5 641-905-129.4-485.4-407.4z"/><path fill="#93a7ab" d="M564.6 1816.4L873 1514.6l-32.2 268.6-258.2 99z"/><path fill="#142407" d="M2052.8 1811.1l277.2-334-653.8 121.2-129.8 681.8z"/><path fill="#0e1310" d="M1496.2 1132.3l-46.5 768.3-241.4-165.4 35.2-296.6z"/><path fill="#a1c7ff" d="M2226.9 2101.9l-384.9-72.2-77.8 148.8 464.5 151.5z"/><path fill="#000001" d="M424.7 2158.9l293.1-310.1 115.6-13.5-258.8 411z"/><path fill="#4c592e" d="M1110.6 1263.4l-199.4 222.4L47.4 873.4 848 1063.1z"/><path fill="#c7b5a8" d="M1104.4 1844.5l-104-107.1 7.8 373.3-187.7-176.9z"/><path fill="#f3ddc7" d="M1137.8 1103.8l-141.4 395 224 171.8-7.7-177.6z"/><path fill="#f7ece5" d="M943.7 958.4l89.2 184.1 156.7 192.8-124-344.5z"/><path fill="#ebe2da" d="M1287.4 1774.3l-149.6-38.6 81.2 52.1 364 236.4z"/><path fill="#4c5f1d" d="M1190.2 1334.2l360.4-317.6-258.3-217-220.2 42z"/><path fill="#395708" d="M1529.1 218l-27.5 440 105 11.3 643.4-295z"/><path fill="#28170a" d="M880 1610.4l353.5 531L938 1861.2l238.6-265.9z"/><path fill="#d1b7ae" d="M1019.5 2330H723.6L964 2100.4z"/><path fill="#091504" d="M1480.7 1005.1l566 424.5 129.8-134.2-181.4-271.1z"/><path fill="#131908" d="M144.5 2330l469.2-667.6-49.4-171-672.4 799.3z"/><path fill="#ded7d7" d="M1061.7 690.1l-96.5 21 116.8 95.1 233.8 14z"/><path fill="#435f72" d="M1963.2 1986.2l115.7 156.3 161.8-356.1-997.7 507.3z"/><path fill="#9a8699" d="M83 1123.1l7 96.6-223 74V906.8z"/><path fill="#637e84" d="M264.7-133h83.7l-39.7 256L134 72.4z"/><path fill="#88877e" d="M539.5 2039.2l-264.6 142.9 119.8 43.3 91.2-398z"/><path fill="#6a6e40" d="M752.4 1074.1l267.3-568-181.3-20.3 244.4 358z"/><path fill="#102200" d="M797.1 997l81-462.4L1211.9-133-133 779.4z"/><path fill="#5a6858" d="M2193.5 1230.8l-394.8-574.6-154 387.4 453.3-247z"/><path fill="#0b0203" d="M-133 1891l417 439-14.7-616-177.5-517z"/><path fill="#5092de" d="M1567.3 2230.9l-103-383.2 121.9-20.9 24.2 264.3z"/><path fill="#4a674e" d="M355 265.7l333.4 131.1-12.2-191.3L361 440.3z"/><path fill="#081e10" d="M1395.5 13.4l-468.8 666 239.7 22.6-888-835z"/><path fill="#c0afa1" d="M1090.1 2231.9l205-172.8 116.8 157.6-70.3-74.7z"/><path fill="#e7c9ab" d="M1218.6 1786.4l-167.2 63 152.5 126.5-51.3-588.3z"/><path fill="#315c01" d="M1392.3 723.7l-179.4-486.4-46.7 435.5-66.2 100z"/><path fill="#431f05" d="M1112 1635.3l-164.7 9.7 158.6 203.4 90.1-55.6z"/><path fill="#6e8b77" d="M557.7 1025.6l101.1 590-335-331.1 604.6-159.4z"/><path fill="#030f00" d="M-133 1177.6L76.6 975 559.8-133l-564 790.7z"/><path fill="#2d3e0a" d="M-133 955.3L951.2 983l-440-565.5-222.3 855.7z"/><path fill="#071700" d="M1202 282.3l449.6-67.1L2330 459l-565.2-592z"/><path fill="#a9b7b3" d="M2330 1033.9l-151.4 104.4-70.8-171.3L2330 851.5z"/><path fill="#9c9f39" d="M301.3 1750l131-66.4 52.5-203.7-296.2 39.9z"/><path fill="#45312e" d="M1157.6 1329.6l-329.9-72.9 94 661.8 71.7-701.1z"/><path fill="#4b300e" d="M1274.4 1896.2l-65.3-29.1-2.6-1.5 202.2-22z"/><path fill="#30617f" d="M1479.5 45.7L1248-133l126.4 238.4 34.7 16.8z"/><path fill="#c3ada9" d="M974.8 700.3l-29.2 155-90 24.4 53-83z"/><path fill="#040903" d="M2156.8 547.4l-592.6 233.2-86.5 526.1L1881 393.3z"/><path fill="#e2cdb6" d="M1039.7 1827l389.6 164-66.4-156.9-57.8 70.4z"/><path fill="#9bada5" d="M660.4 1567l-273.3-288.9-139.9 188.5 456.6-48.8z"/><path fill="#a98a7b" d="M943 1490.2l74.6-127 109.5 223-167.2-57.7z"/><path fill="#e6e1d3" d="M1131.2 1069.2l97 457.4L1079 1351l137.7 382.4z"/><path fill="#300a02" d="M1578.6 2330l-342.2-329 115.4 64 208.4 265z"/><path fill="#fffdfb" d="M1163.8 723.8l-34.8-13.5-106.9-19.4-77.9 36z"/><path fill="#9aaba8" d="M873.2 1807.8L861.6 1659l-1.8-189.7-67 157.5z"/><path fill="#37521a" d="M1104.1 519.5l-563.7 763.7 674-1081L1371.7 478z"/><path fill="#d1c6ba" d="M896.4 1881.2l41.3 223.7L805 1927.2l244.4 69.8z"/><path fill="#1b2b0a" d="M2079.1 1933.8l-816.5-348 373.2 308 96.7 109.6z"/><path fill="#48494a" d="M2062.4 513.2l-191.2-116 206-59.8 30.8 111.4z"/><path fill="#19180f" d="M1320.3 2167.6l-262.1-246.3 168.8 183.1 155.7 172z"/><path fill="#486261" d="M1395.2 1674l287.6-163-18-345-207.4 197.7z"/><path fill="#5a474b" d="M884.9 1057.8l396-222.3-262.6-7.5-58.7-64.6z"/><path fill="#6a6671" d="M360 2330l-70.8-264.3 16-99L524 2330z"/><path fill="#6c835c" d="M1283.2 264.7l-78.4 106.8 377.5 38.6L1455 563.3z"/><path fill="#59462c" d="M748 1812.4l620.7 200.5-198-128.5 73.5 110.4z"/><path fill="#e8e6e8" d="M1086.7 980.3l53 164.5-167.4-82.4 4.5-19.2z"/><path fill="#213307" d="M1052.9 944.8l447.5-34.7-243.7-128.7 105.2 535.3z"/><path fill="#487400" d="M1798.2 496.4l-339.2-185 103.5 218.3 184.7 73.7z"/><path fill="#4f5c3b" d="M75 1139.6l-54.7-23 150.2-295 65.2 74.7z"/><path fill="#5b6f37" d="M324.6 1294.2l268-370.6L844 1554.2 476.8 1209z"/><path fill="#e0cebe" d="M1168.8 1875.6l94.9-93.5 74.2 55-211-31.2z"/><path fill="#141b04" d="M1353.7 1316l-91.2 57.9-37.4 385.8 208.3 56.5z"/><path fill="#0c0c0b" d="M664.4 1997.5l-241 183-72.8-213.5 304.6 355z"/><path fill="#547820" d="M1503 894.7l14.9 70.7-48 156.3-167.9-74.2z"/><path fill="#cead8c" d="M1015.4 1823.4l431.6 311.4-349.8-297.3-76-95.3z"/><path fill="#021700" d="M230.2 995.2l85.6 33.6L482 429.5l-171.7-41.7z"/><path fill="#365324" d="M862.3 1437.1l-2-362-140.6 451-1.7 192.1z"/><path fill="#578071" d="M376.3 332.9l34 64.3 91.5-82.8-75.3-45.8z"/><path fill="#121f00" d="M1027 677l313.9 95.4L166.3-133 1057 220.9z"/><path fill="#25261e" d="M1013.8 2003.2l232.5 3.4 13.3 114.2L888.4 1970z"/><path fill="#cbb8ad" d="M1269.8 2044.4l201 197.1-146.7 7.5 41.3-8.3z"/><path fill="#455c47" d="M52.3 512.3l107.4-50 13.3-47.5-126.8-40.6z"/><path fill="#728d89" d="M1928.3 1951L1670 2330l53.6-304 227.6-5.8z"/><path fill="#091900" d="M664.9 1018.4l117.5-68.9 31-420.2-178.6 271.5z"/><path fill="#36332d" d="M910.4 1891.8l-158.1 47.3 178.3-215.9 258.3 264.6z"/><path fill="#0a292f" d="M1019.4 189.4l106.7-267.5L1284 269.7l-169 118.7z"/><path fill="#596732" d="M1650 1399.2l200.2 249 32.8-19 12.2-166.4z"/><path fill="#061400" d="M2330-133l-365.2 268.3L2330 825.7l-185 79.1z"/><path fill="#304610" d="M142 1444.3l227.9 286-40.1 435 14.7-203.3z"/><path fill="#231e13" d="M1105.1 2089.7L1131 2330h104.4-3.4z"/><path fill="#a39485" d="M1048.2 2038.7l87.4 130.2-257 18.7 91.1 139z"/><path fill="#0c2203" d="M1294.3 485.3l44.2-369 383.1-22.4L1447 352.2z"/><path fill="#9e8c76" d="M1225.7 2011.7l-64.6-1.4-42.1-47.3-50.4-36.6z"/><path fill="#4a6600" d="M768.8 794.1l66.4-65.3 65.2 24-65.1 345z"/><path fill="#3a493d" d="M1429.4 821.8l430.8 91.1-163.7 150.2-215.3-503.9z"/><path fill="#2c3b1b" d="M2138.5 1765.6l-222.9-261-373.2-306.3 372.4-28.4z"/><path fill="#3e2c37" d="M925.8 1582.6L946 882.1l-38.4 65-40.8 172.7z"/><path fill="#b2ad6b" d="M200.5 1292.6l149 401.3 126-193.8-311.7-156.9z"/><path fill="#252624" d="M919.1 1944.3L785 1788.4l-146.2 276.4-157.5-189z"/><path fill="#708363" d="M2027 866.5l-93 144.3L1809.7 851l63.3-30.2z"/><path fill="#7aabdf" d="M1561.3 1865.3l16.3 208.2-169-198-23.7-11.4z"/><path fill="#b89d78" d="M1297.2 1965.8l-90-60.5 297.7 115.3 40.4 292.8z"/><path fill="#4b5541" d="M548.4 1994.7L535 1866l134-296.8-281.2 271.6z"/><path fill="#bfa58c" d="M1228.7 1525l-279.4-469 103.1 13.7 54.2 140.3z"/><path fill="#537581" d="M1505.2 1463l84.9 108.3 89-85.5-98.9-193.2z"/><path fill="#f3e8d4" d="M1140.7 1907.4l-149-154 48.8 28.4 147.3 165.8z"/><path fill="#878f75" d="M549.3 2047.5L531 1954l-87.3-27.4-10.9 77z"/><path fill="#364816" d="M388.4 794.5l197.8-362-2.5 274.1-236.3 414.1z"/><path fill="#869973" d="M1397 519.1l-15.8-77.6 151.3-34.7 14.7 79.3z"/><path fill="#7099c8" d="M2034.1 2142.1l-178.5-139.5 473.9 58.8-321.2 93.7z"/><path fill="#495f58" d="M2249.1 1450.2l-15.7 331-282.2 174.2 136.8 88z"/><path fill="#638697" d="M457 1207.7l-71.7 100.2 116 137.7 66.9-167.6z"/><path fill="#d7ced5" d="M1061.5 725.2l-55 97.7 80.6-23.1 153 32.4z"/><path fill="#152310" d="M1655.6 896.8l173.3-32.3-103.3-104.9-681.7 179.9z"/><path fill="#3c5507" d="M1259.1 885.9l28-333.8 76.1 446.7-207.7 290.1z"/><path fill="#1f2615" d="M1405.7 1833l-255-592.6 292 213.3-258.9 273.3z"/><path fill="#f2e9d9" d="M1079.9 1301.8L1175 1447l58.4 191.4-83.7-108.3z"/><path fill="#789154" d="M788 1499.2l-189.6-66-144.6 105.4 133-334.5z"/><path fill="#435934" d="M978.3 451L844 515l55.3 122.8 123.9.5z"/><path fill="#808988" d="M561.4 1803.5l95 99 98.5-190-114-98z"/><path fill="#0d1107" d="M1227.7 1521.3l.7-170.8 37.1 371.3 363.5-693z"/><path fill="#e4d0b5" d="M1187 1730l170.6 102.7-197-77.5 34.8-482.4z"/><path fill="#122100" d="M438.2 966.6l717.7-425-1 121.6-493.5 105z"/><path fill="#0b1900" d="M2172.3 1436.3l-78.4 157 199.2 123.4 37 123.6z"/><path fill="#f5ede9" d="M1164.8 725l-122 18.6 127.9 77.3L1013 687.5z"/><path fill="#bab09e" d="M1206.8 2151.4l-117.7 12.7 78.8-31.4 118.9 22z"/><path fill="#d0c5b0" d="M1201.2 2243.5l-393.3 55 86.3-133.9 190.3 64.5z"/><path fill="#6c4b2b" d="M1271.8 1828.7l-290.7-191 342.8 272-143.3-47.7z"/><path fill="#ded4c4" d="M794 1947l-9.8 21.5 30.3-55 104.3 53.5z"/><path fill="#d6c9c8" d="M1060 681.8l-12.8 76.8 101.4-37.4 69.9 60.8z"/><path fill="#525d39" d="M229 1593.5l-93.4-227.6 158.7 53.2-108.5 119.2z"/><path fill="#5d695a" d="M613 1013.8l-196.3 294.6-222.3-47 230-46.4z"/><path fill="#403231" d="M834.1 1953.2L594 2330l331.2-178.6 49.8 33z"/><path fill="#192408" d="M83.3 1283.2l327.5-101.9-30.8-56.5-245.7-9.8z"/><path fill="#9e9492" d="M336.4 2152l111.5 34-22.1 144-106.7-20.7z"/><path fill="#2b3d38" d="M1514.5 1689l-60.2 202.2-116.1-64.5 118.7-528.5z"/><path fill="#302517" d="M1294 2011.9l-246.5 120.7 161.2-35.5 11.8-118.3z"/><path fill="#424d38" d="M2109.4 1020.5l-186.9-10.5 309.3-289.8-285.4-58z"/><path fill="#506358" d="M2049.6 1416l67.2 7.8 10.3 34.6-106.7 119z"/><path fill="#425d7a" d="M1636 2014.6l-106.5-282.7 58.4 254.5-63.6 343.6z"/><path fill="#1f2e15" d="M529.5 1456.6l52.5 176.8-379.4 426 205-57.5z"/><path fill="#a4c6dc" d="M1755 2137l192 109.5 62.4 83.5-54.8-281.4z"/><path fill="#142701" d="M1261.6 554.8l9.2-114 299 317.1L1317 624.2z"/><path fill="#345200" d="M537 227l78.2-87.5 60.2 73.8-116.3 104z"/><path fill="#e3dbce" d="M1401.7 2178.7l-115-100.2-14.5 43.5 41.8 7.9z"/><path fill="#897a6f" d="M1207.3 876.9l-33.7-55.4 50-4.4-151 97.2z"/><path fill="#061100" d="M134.8 249.4L-133 43.4 235.7-133-133 403z"/><path fill="#aaa092" d="M913 2005.2l223 91.5-305.2-73 96.2-79z"/><path fill="#9e959c" d="M44.3 1162.5l-3.3 41.8-174-9.2V787.3z"/><path fill="#9e9588" d="M1186 2221.7l14.4-2.8-36.7-93.9-73.4-111.2z"/><path fill="#281b12" d="M1270 2197.5l20.3-64.8 93.2 118.3 22.2 7z"/><path fill="#2e1e0f" d="M1033 1727.2l-153.8 17.5 109.6-160.1 147.8 307.4z"/><path fill="#8f5e35" d="M1155.8 1584.2l24.6 168.4-8.4 43.3-132.7-230.8z"/><path fill="#0a1700" d="M1821.3 518.6l309.2-40.7 131.7 112.4 41 159z"/><path fill="#636d5c" d="M891.4 1771l-382.5-332 86.7 178.2 328 239.7z"/><path fill="#1f290f" d="M1672.7 2138.6l-75.2 191.4 39.5-423.5 516-705.1z"/><path fill="#50342d" d="M1070.5 1334.3l14.1-110-135 227.4 29.4-283.6z"/><path fill="#a2b4b1" d="M371.2 1482.5l-83.3-163.3 167 2.5 26.6 46.8z"/><path fill="#595b68" d="M682.7 2082.6L647.5 2330l50.7-86 27.2-196.7z"/><path fill="#755c5d" d="M993 1287.7l-61-11.7.2-177.4 21.6-87.8z"/><path fill="#637444" d="M431 1128.5l63-23.8 334.4-133.4 59 140.4z"/><path fill="#332311" d="M1409.9 2161.8l91.2 78.1 1.7-91.6-77.1 181.7z"/><path fill="#294803" d="M1454.3 672.2L1073.2 749l86.3 8.7 23.8-267z"/><path fill="#d3cdc3" d="M1541 2018.7l-150-169-191.3-76.8 25.2-15.3z"/><path fill="#212d13" d="M1437 1428.3l2.7 115.5-256.9 194 244 86.3z"/><path fill="#d4ccc0" d="M1516.8 1955.3l9 11-135.7-27-4.8 70.3z"/><path fill="#c1c0b7" d="M1460.6 2133l-144.3-175.3 229 198.5-33.4-169.5z"/><path fill="#413737" d="M930 1043.2l-69.8 40.6L1014.4 756l-43.8-19z"/><path fill="#47522c" d="M1944 1608.2l201.7 189.4 85.8-46.4-21.6-83.7z"/><path fill="#51654c" d="M1649.3 993.7l28.6-106.1 109.3 22.9-29.6 102z"/><path fill="#6d5b42" d="M1136.8 1882l-188 425.9 195.4-444.8 248.2 204.1z"/><path fill="#3d6da4" d="M1599.4 1803l-109 30.8-9.2 118.4-55.4-127.6z"/><path fill="#052836" d="M822.3 119.4l72.4 47 54.4-190.1-201.3-97.7z"/><path fill="#0b1c04" d="M822.2 12.5L493.3-88l-211 212.7L311 312.4z"/><path fill="#ead8c5" d="M1168.7 1823.5l-62.8 72.7 207.1 125.1-197.6-145.9z"/><path fill="#323829" d="M264.2 1693.4L60 1225l141.7-251.2-135.8 61.7z"/><path fill="#908372" d="M1034 2274.2l41.8 2.6-60-358-4.5 82.1z"/><path fill="#0b1a00" d="M137 949.4L-47.4 1046l30.7 378.3 12-1135.9z"/><path fill="#354e31" d="M1203.3 328.5l188 240.7-73.7-341.3-116.5 83.7z"/><path fill="#101f04" d="M2180.4 1453.6l-161.1-420.3-310 208.7 28.5-235z"/><path fill="#3d3b33" d="M1037.1 1945.3l-148 60 103.4-3.3-50.3-374.2z"/><path fill="#041500" d="M551.5 457.2l-208.3 196-1.6-145.1L561 289.7z"/><path fill="#18290b" d="M1596 389.5l348 77.8 37.3-142.8-83-92.1z"/><path fill="#e9edeb" d="M1146.3 1228.7l26 .6-137.9-264.6 90 306.4z"/><path fill="#181c18" d="M1114.8 2051.8l-48 14.3-35.6-191.2 135 174.4z"/><path fill="#2f4032" d="M488.5-133L382.9-39.7 235.2 288.1l-109.5-7.6z"/><path fill="#beb0a4" d="M970 699.7l-65.4 96.4-37.7 88.4L955.5 780z"/><path fill="#c2a990" d="M1219 1735l-181.8-370.5 141.7-113L982.3 1392z"/><path fill="#182903" d="M2002.6 1734.1l-386.7 121 212 163.4 43.6-32.7z"/><path fill="#131310" d="M221.7 1266l-354.7 1.5L238.4 1719l-112.2-407.4z"/><path fill="#8a9d81" d="M619.6 1394.7l-67.9-4.3 56.3 135.1 156-22.8z"/><path fill="#d8ccc1" d="M1348.6 1832.5l-231.5 12.3 92.7 37.1-68.4-47.1z"/><path fill="#dfd7c4" d="M902.1 1901.2l37.8 45.7-145.9-1.8 248.8 40.4z"/><path fill="#c1bbae" d="M804.8 1924.7l-48.5 17 124.8 33.8-39.9-38.8z"/><path fill="#554f3e" d="M1372.4 2177l-69 53.9 241.8 99.1-356.9-271.5z"/><path fill="#3a4a17" d="M998.1 1008.6l-81.7 74-82.5-135.2-688 85.9z"/><path fill="#4a5545" d="M1552.9 1839.9l-83.3-127.7 175.8-171.8 75-98z"/><path fill="#3c4f32" d="M1705 1482.4l140.4-281.8 98.4 140.2-311-16.3z"/><path fill="#637039" d="M526.4 1399l-111.8 292.8 83.2-41.4 38.3-205z"/><path fill="#0a1904" d="M1422.9 798.7l-33.5-100.1-50.8 248.9 88.3-16z"/><path fill="#e7d4bb" d="M1413.9 2096l63.7-79.8-93 72.1-279.3-213.3z"/><path fill="#597179" d="M271.9 61.6L234.4-62.7l-15-.6L164.2 76z"/><path fill="#5a6051" d="M517 1840l379.9-24.3-105.5-95.3-130.2 195.4z"/><path fill="#0d0a06" d="M335.4 2258.5l-384 19.3L276 1732.6l-31.6 292z"/><path fill="#54604c" d="M1986.6 789.8l281 109.6 62.4 38.9-331.5-73z"/><path fill="#c7c0b1" d="M961.3 1920.4l-53.4-32.7 17.9 60.3 110.5 63.2z"/><path fill="#0d1e00" d="M1518.2 353.3l-125-29.7L1297 253 1269.3 8.7z"/><path fill="#161814" d="M359.6 2119.9L605 2263.6l-63.3-415 153 229.7z"/><path fill="#3a352d" d="M526.5 1964.6l666 177.5-620.5-94.9 35.4-6z"/><path fill="#fef3e5" d="M1265.6 1787.5l66.2 31.4-101.3-62.2-25.7 24z"/><path fill="#3f3018" d="M1254 1858.8l81 10.2-9.5 23.6-117-34.2z"/><path fill="#386e07" d="M1106.3 441.5l93.1-77.4 88.3 9.8 40.8 67.3z"/><path fill="#0a1002" d="M1956.4 415.2L1531.7 1025 1720 639l214.7 79.1z"/><path fill="#705f5a" d="M900.3 1602.1l134.2-38.3-38.3-198.6-103.7 260.5z"/><path fill="#a5876b" d="M1103.2 1268l105 128.5-189.1-170.3-47.7-146.4z"/><path fill="#0e3038" d="M714-66l830.6 111.8-152.2 145.6 83.3-201.2z"/><path fill="#5c7430" d="M1462 572.4l94.2-47-129.8-156 127.2-9z"/><path fill="#292f2e" d="M861.8 1875.1l146.2 35.7 71.9-56.6-187.7-37z"/><path fill="#304042" d="M1386.1 764.6l117-27.3 41.6 61.6-26.7 94.4z"/><path fill="#232d18" d="M1866.8 971.6l242.7 821.8-394-1062.5 290.8 465.3z"/><path fill="#537599" d="M2082.1 1883l248-73.8-225.4 280.7 5.3-98z"/><path fill="#4c5b47" d="M408.8 1243h456.5l-333.5-125.1-133-81.4z"/><path fill="#6f806b" d="M846.3 1151.3l-79-83.5-143.1 61.6 141.3 86z"/><path fill="#e2d8ce" d="M1274.4 1914l-38.2-40.2 30.2 74 109.8-75.5z"/><path fill="#4b5a48" d="M2238.5 1818.8l-811 338.5 104.3-75-27.9 35.8z"/><path fill="#977249" d="M1326.4 1884.7l-42.7-84.4 82.1 84.9-298.7-183.2z"/><path fill="#a89e93" d="M1109.3 2048.3L1081 2142l6.3-85.8 113.3 137.9z"/><path fill="#9f9791" d="M1156.5 1379.5l80 288-8.4-124 5.2-3.4z"/><path fill="#132400" d="M925 638.5l11.4 96.2-31 44.7L554.1 415z"/><path fill="#46311f" d="M875 1583.2l279.6 34.1-83.3 156 164.4 54.1z"/><path fill="#2c4704" d="M1761.8 497.2l32.9-267.5-233.1-56.2-97.6 170.4z"/><path fill="#1c240d" d="M1995.9 610.7l52.3 109-101 138.1-106.7-197.5z"/><path fill="#3e4a29" d="M1706.9 292l-3.9 62.1-150.6-53.5 125.8-76.5z"/><path fill="#355800" d="M1177 481.8l205 233-174.1 219.9 185.3 208.9z"/><path fill="#4d5b37" d="M1206.8 1013.8L1107 1108l6.6-122 114.3 381z"/><path fill="#151912" d="M724.1 2002.4l100.3-217.3-215.2 183.3-154.9-170.5z"/><path fill="#53723d" d="M193 941.2L133.3 987 152 854.6l50.1 14.7z"/><path fill="#031707" d="M-133 452.2l407.4 453.6-104.7 241.9 205.9-324.5z"/><path fill="#3b5f5c" d="M1379.8 127.5l62.6-85.5-74.8-20.9-35.2 47.7z"/><path fill="#373d3c" d="M937.9 907.3l141.8 55.1-17.2-105-64.4 57.4z"/><path fill="#e8dbca" d="M1155.6 1482.4l53 128-26.2-195.6-239.9 43z"/><path fill="#c5bb6b" d="M386.8 1493l40 104-92.5 35.9-18.7-41.4z"/><path fill="#76664f" d="M1245.3 2076.7l254.3-91.4-59 47-237.7 41.3z"/><path fill="#98ad9f" d="M1743.8 2111l70.2-39.8 55.3 258.8h-95.8z"/><path fill="#e2d4c7" d="M1092.5 1065.9L941 971.5l136 34.2-139.6 81.7z"/><path fill="#0f0809" d="M1469.2 2272.5l114.5-10.2-128.8-69-76.5-76.4z"/><path fill="#444a3c" d="M2006.6 330l113 73.3-101.3 89.4-59.8-29.8z"/><path fill="#2d2d22" d="M935.4 2118.6l-156 150.7 83.6-291.8-80.2 20z"/><path fill="#362f33" d="M1034.5 1323.6l-114.2 178-43.9-65 96-131.6z"/><path fill="#9a8a72" d="M1424.6 1919.8l101.6 105.8-154.8-107-13.8-23z"/><path fill="#343f18" d="M1921.4 1613.9l-45.4 157.4-243.6-179.7 86-41.2z"/><path fill="#1d2b02" d="M249.7 438.8l195.7 319.9-229.1-63.4-150.7 360.4z"/><path fill="#6e7e6d" d="M2096.5 1143.8l14.1-251.5 89 395 122.9-223.9z"/><path fill="#dfd9d7" d="M1120.3 809.8l70-50.8 34.3 70.2-214-147.1z"/><path fill="#d5c7b9" d="M1446.2 1965.4l24.7 43.8-133.7-122-23.3 107.2z"/><path fill="#2d2114" d="M990.1 1650.8l112 197.9 69.7-62.8-238-101.8z"/><path fill="#22330d" d="M1221.6 882.2l81.5 224.2-194.3-106.6-11.4-86.4z"/><path fill="#121a03" d="M1245.5 789.3l-112.5-126-385-509.5 272.7 246.3z"/><path fill="#446857" d="M379 404.9L499 269l-27.6-20-98.5 54.8z"/><path fill="#817260" d="M1306.8 1876.3l118.9 169.9.8-31.1-56.3-17.8z"/><path fill="#32464a" d="M1566.1 1815.2l35-26.7-241 63.8-23.6-67z"/><path fill="#000b00" d="M2028.8 97.6l-19.5 22 311 225.8 9.7-382.9z"/><path fill="#dce1e4" d="M1024.7 1036.4l61-17.2 60.6 173.8 15.3-58.4z"/><path fill="#f5ead8" d="M1219.2 1695l-108.7-216.3 26.8-67.4 54.2 53.5z"/><path fill="#625856" d="M889 871.5l109 108.3-5.3-262 42.7 49.5z"/><path fill="#0f1602" d="M376.7 178.3l-82-42.2L35.2 249l156.5-143.3z"/><path fill="#efece5" d="M958.3 707.7l104.7 39 25.7-3.2 12.6-49.4z"/><path fill="#8bb2d8" d="M1922.4 1997.1l11.3 224.7 303.7-221.6-86 329.8z"/><path fill="#3c4934" d="M543 377.7l98.2 5.5 72.5-81.6-93.5-55z"/><path fill="#bcb3a5" d="M951.4 2038l75.6-94.3-32.8 101.6-131.6-98.3z"/><path fill="#94a7b3" d="M865 1699l-11.5-74.2-14-57.4-58.5 132.5z"/><path fill="#302d1c" d="M1153.2 2174l-2 151.7-27.2-118.4-28.3-57.4z"/><path fill="#0e1d09" d="M-83.6 438.9l-49.4-572 341.9 684.3 260-407z"/><path fill="#27360e" d="M385.3 1691.8l166.3 49.8 45.6-217.2-367.5 343.3z"/><path fill="#29382f" d="M1728.8 2156.5l-172.9 93.2 118.8-394.7-80.5 82.8z"/><path fill="#e6ddd4" d="M1181.8 1843l-77.7 28.7 89-53 75 31.7z"/><path fill="#757b62" d="M422 2011.4l41.6-98.7 97 29.2-41.3 128.1z"/><path fill="#7b6041" d="M1322.2 1999.4l8 102.9-19-147.6L1197 1941z"/><path fill="#001510" d="M889.4-133l300.4 257.3L1197-133l-174.7 332.8z"/><path fill="#401f09" d="M1357.2 2086.4l-180.5-101.5-36.5-46.6 110.2 61.8z"/><path fill="#2d2212" d="M1004.8 2170.2l134.1 113.3 148.6 46.5-353.7-174.6z"/><path fill="#d9d2c9" d="M1506 1949.6l-128.5-59.5 49.4 129.6-119.7-209z"/><path fill="#c0c2ba" d="M1383 2189.5l149.6 128.3-6-322-32.9 361.3z"/><path fill="#75a3d2" d="M1589.3 1915.6l-162.6-65.3 66.6 139 38 120z"/><path fill="#bbaa98" d="M1126 1877.3l73.6 124-50 20.2 43.2-76z"/><path fill="#2b321a" d="M1122.8 746l11 32.4 116.1-102.9 48 52.5z"/><path fill="#4c3626" d="M1141.4 2041.8l-284.7-511 41.4 289.2 123.1-23.3z"/><path fill="#99a36d" d="M322.4 1524.1l-150.6-169.3 91.6-74.3 20.4 7.5z"/><path fill="#2d3917" d="M1204.8 1588l200.3-382.8-208.7-214.6 56.2 571.6z"/><path fill="#26361e" d="M715.8 1572l40.3-17.5 49.2-91.7-10.4 120.6z"/><path fill="#b8aa99" d="M1270.7 2167.2l-10.2 151.3-10.6-137 31-145.8z"/><path fill="#482d19" d="M1103.8 1945.9L931 1764.2l215.8 169.3 166 121.3z"/><path fill="#3d3737" d="M21.1 960.1l100.4 212.5-249.5 137.2 234.3-75z"/><path fill="#0f140b" d="M1277.8 1549.9l293.7-569.4 107.2 26.2-378 600.3z"/><path fill="#8c9496" d="M681.9 1853.4l68-113.8-110.4-67.3-22.5 143z"/><path fill="#122208" d="M327.4 1770.1l78.4 324.8 10.3-251.9 137.4-174.6z"/><path fill="#aba18f" d="M982.4 2091.4l154.5 127L976.4 2072l162.1 2.7z"/><path fill="#606953" d="M537.5 1817.2l31.3 40.3 33.1.8-.4-271z"/><path fill="#f1dfc7" d="M1002 1777l213.1 191-62.4-42.9-124.3-167.8z"/><path fill="#58730e" d="M887.8 915.6l-27 131.2-38.1-107 52.8-144.4z"/><path fill="#766853" d="M1384 1953.2L993.4 2319l322.8-301.8 78-19.7z"/><path fill="#2a3b32" d="M1511.7 1272.8l162-146.4-191.8 274.5-31.4-70.3z"/><path fill="#38383b" d="M251.7 2034.6l79-67.5-20.8 90-3.4 165z"/><path fill="#283b2e" d="M-133 3.3L99.8 191.5l91.4-147.7L-51.5 148z"/><path fill="#2e2e22" d="M1143.3 1983.9l-137.8 141.7 73.1-108.8 107.1 49.8z"/><path fill="#c0c1bf" d="M1025.4 715.5l54.9 70.8 274.4 13.8-348.9 6.3z"/><path fill="#1e2018" d="M1187.6 2086.2l-86 .2 184.2-55.2-215.3-32.2z"/><path fill="#203e00" d="M1658.1 686.9l190.3-212.2-37.1 180.3-286.6-136z"/><path fill="#77846e" d="M1959.9 1009l-108.7-166.2L2281.6 990l-312-72.2z"/><path fill="#57644f" d="M2209.3 1307.4l-157.1-493.8L2330 1901.3l-65.5-714.6z"/><path fill="#4b4744" d="M653.5 2099.5l178-134.4-98.4-13.3L798 2330z"/><path fill="#5c504c" d="M900.9 1407l-30.4 212.3-11.2-56.4 16-563.2z"/><path fill="#223013" d="M1960.1 1469.2l-175.8-155.8-38.1 149.7 453.8-140.2z"/><path fill="#bcb19e" d="M897.6 2230.8l-24.7-61.4 106.5 10.1L1082 2275z"/><path fill="#9caaa4" d="M2179.4 1001.2l3.6-84-39.2 169.2 186.2-18.6z"/><path fill="#31401d" d="M1320 818l-125.2 13.6 450-141.7-67.6-94.6z"/><path fill="#64793a" d="M730.3 1569.1l-52.5-306.4-46.3 65.4 192-93.3z"/><path fill="#3d533a" d="M125.2 374.4l2.3 142.8L-133 319.7 14.3 429.5z"/><path fill="#51731b" d="M1498 1006.6l-80.3-29.5-100.6 73.4 73.4 78.4z"/><path fill="#111e00" d="M867.6 115.7l-81.3 835.7-151.1 57 336.4-772.9z"/><path fill="#e5d1b4" d="M1226.2 1702.5l-110.7-276.3 54.4-48.2-140.1-80z"/><path fill="#c9beaf" d="M1264 2074.8l8.1-8.2 171.5 153.3-192.5-136.8z"/><path fill="#7196be" d="M2330 1861.7l-251.4 295.8 73.2-201 178.2-41.7z"/><path fill="#17270b" d="M337.7 269.8l3.7-402.8-440 31.7 767.3 229.8z"/><path fill="#bdb39b" d="M1202.4 2131.3l48.4 27.5-95.5-22 .2 82.5z"/><path fill="#95a2ac" d="M1119.6 1049.7l-39-105.8 46.9 242.3 6-60.7z"/><path fill="#5f5749" d="M979.5 2046l172 17-150.8-25.7 3.3 42.3z"/><path fill="#3a2616" d="M1288.2 2023.4l105 114.2-68-59.5-391.5-252.8z"/><path fill="#424f1b" d="M874 1341.5l-112.6-21.3-22.7 67.5 67.1 97.6z"/><path fill="#e4d2b8" d="M1380 1967.4l-112 32.7 28.5 18 21.7-30.3z"/><path fill="#25251b" d="M1254.8 2113.6l77.4 44.3-194.2-83.3 90-82.2z"/><path fill="#7e8d7e" d="M1405.5 394l-3.4 128.2 91.3-68.9-1.7-14.7z"/><path fill="#667f1f" d="M262.4 1646.1l-55-116.1 188.7 179.6-113.8-19.8z"/><path fill="#0c0e0b" d="M779.8 1844.7L513.5 2330l-55.8-219.4 257.2-65.4z"/><path fill="#435c3d" d="M1457 376.4l-126.4 106.4-15.5-167.1-109.2 93.3z"/><path fill="#cea981" d="M1164 1689l38.7 24.2-67.5-195.1 22 190.5z"/><path fill="#878d63" d="M492 1529l-22.7 116.6-77.6 18.5 141.8-367z"/><path fill="#283522" d="M1830 409.1l-19.8-13L1880 283l104.3 177z"/><path fill="#233c1c" d="M533.6 454.2l112.2 80.6-168 138.5-79.1 3.6z"/><path fill="#dcd8d1" d="M1513.2 1942.9l-30.8 9.3-53.9 34.1-76.4-30.6z"/><path fill="#152403" d="M2162.5 250L2330 488l-648.3-334 99.1 187z"/><path fill="#b89f8b" d="M1285 1997l139.7 131.8 74-84.7-73.2 115.2z"/><path fill="#dcd2c6" d="M1371.5 1883.8l-125.5 70 25.8-50.3 144.5-22z"/><path fill="#172206" d="M1272.9 1671.4l179.6 136-217.2-445.7-23.7 30.6z"/><path fill="#ece7e1" d="M1085.4 991.7l32.6 80.6-117.2 14.2 29.1-83.2z"/><path fill="#333c28" d="M479.5 1775.3l146.2 111.3 86.2 4.3-373.2-10.2z"/><path fill="#28370f" d="M255 981.5L189.3 1116l215 135.6-32-201.8z"/><path fill="#264400" d="M1435.1 1185l118.7-168-80.4 44.2-98.5 118.6z"/><path fill="#182608" d="M1618.4 1942.7l68.4-261.1 228.7 290.8 86-105.4z"/><path fill="#576b56" d="M1722.3 2009l106 1.2-60.9 31-112.2 288.8z"/><path fill="#807361" d="M936.7 854.4l221.7-7.1-76.4 97.4 22.3-163z"/><path fill="#40584f" d="M2099.9 1996.4l-148.7-48.3 292.8-89.4-248-50.6z"/><path fill="#7692a3" d="M418.5 1399.5l-13-116.6 148.9 39.7-78.1 80.3z"/><path fill="#011504" d="M635.2 35.7L745.3-133l62.3 209.8-182.1 82z"/><path fill="#cbc2b1" d="M927.7 2030.8l92.4-33.4.6-51.1-44.6 106.2z"/><path fill="#dbdbd6" d="M1205.5 1467l-84.2-327.2 23 29.7 72.5 302.8z"/><path fill="#2b4e00" d="M1206.6 774.5l152 43 21-148.3-85.8-50z"/><path fill="#426c00" d="M1588.6 357.1l130.7 269.5 71.4-161.4-265.7 42.9z"/><path fill="#333927" d="M389.2 1965.5l-16 181.3 198.3-127.4-78.7 115.4z"/><path fill="#60734f" d="M148.1 1300.8l183-40.2-112.5-12.7-37.8 173.7z"/><path fill="#23351e" d="M2049.7 1233.3l116.7-73.7-9.2 195.7-149.1-393.6z"/><path fill="#596033" d="M1777.9 1499l84-40.6 78 .2-116 153.6z"/><path fill="#23380c" d="M69.5 346.5l-103 88.5 70.8 404.1L-133 934z"/><path fill="#0d1b00" d="M1699.3 1035.1l145.8 82.2 233-31.4-373.7 124.1z"/><path fill="#d7cbc0" d="M1314 2073.4l21.4 113.3-1.1-21-63.7-80.5z"/><path fill="#2a202c" d="M48.6 2023.1l-113.6 4.3-68 259.5 199.9-160.2z"/><path fill="#0f1c01" d="M1968 806.4l-109.9 10.5 148.7-333.4-188.5-76.3z"/><path fill="#3b433c" d="M1765.3 699.3l-38.4 73.5 94.7 114.4L1889 720z"/><path fill="#424436" d="M889 1911l72.6 31.6-144-26.5-414 21z"/><path fill="#f5e8d4" d="M1181.7 1740.6l85.5 92.6-27.2-32.5 67.6 5.5z"/><path fill="#0f2f2c" d="M1391.5-133h256.6l-606.8 357 91.8 120.7z"/><path fill="#030b09" d="M27 39.3l118-164.5L155.3 58l-18 15.4z"/><path fill="#9a8d7d" d="M1091.1 2188.5l238 141.5-311.9-156 98.2 101.6z"/><path fill="#3c4b2d" d="M1532 1038.2l-31.6-153.4-86.4 31.4-18 40.7z"/><path fill="#302216" d="M1038.9 2166.5l-82.4-95 47.8 130.7 6.4-57.4z"/><path fill="#777f5b" d="M200.6 1539.3l39-174.3 24.5 202.2 13.7 8.6z"/><path fill="#859781" d="M664.6 1575l-85.1-35.4 21.5-137 129 66.4z"/><path fill="#afa696" d="M1087.4 2114.4l17.7-55.8-62 43.4-29.2 1z"/><path fill="#0e2100" d="M1267.3 479.5l481.2-469-254.2 36.3 25.3 14.4z"/><path fill="#d0cccd" d="M1268.8 815l-215-13.6-68-.7 102.2-36.8z"/><path fill="#537792" d="M1984.3 1981.5l279.4 111.6 66.3-12.4-494.9-85.1z"/><path fill="#e5e1e2" d="M1127.2 814.5l120.4-16-72.6-42.8 15.3 32.8z"/><path fill="#41593a" d="M1658.4 1270.7l-74.7-78.6 110.7 319.1 116.6-52.8z"/><path fill="#4a573b" d="M1205.3 1175.7l-49 55.5 59.7 115.7 29.1-113.3z"/><path fill="#594e47" d="M939.7 1430.3l-17 44.3 55.1 22.7 57.2-1.7z"/><path fill="#7a573c" d="M1169.6 1951l-52.3-25.6-112.3-105.3-50.6-78z"/><path fill="#3a3424" d="M890.7 2018l-151.6 77.8 73.7-138.6L918 2144.5z"/><path fill="#4a75a4" d="M1429 1849.5l44.8 87.2 52.8-151 86.3 124.3z"/><path fill="#452f20" d="M950 1537.4l70.5-9 18.7 176.9 11.3-134.7z"/><path fill="#0e1a0c" d="M1143.7-73.1l-467.6 509-205.5-137L564 466z"/><path fill="#2c3a15" d="M1054.8 396.4l-8.8 139 182 3.2L1093 322z"/><path fill="#3c2a22" d="M1406.4 2088.4l30.1 101-162.2-179.6 139.1 169.1z"/><path fill="#324a1a" d="M1362.2 519.9l261 229.5 17-56L1513.7 557z"/><path fill="#2d291f" d="M1103.6 2116.9l125.9-113.6 10.5-14.2-151.5 120.8z"/><path fill="#37470e" d="M419.1 884.4l218-149.4-.2-28.7-237.7 77z"/><path fill="#dbd5cd" d="M1203.7 1814.2l-99.8 42.8 137.2-15.3-35.6-6.2z"/><path fill="#8d7b64" d="M1284.4 1812.4l103.7 69.7-111.5-53.2-215 168.8z"/><path fill="#6b7259" d="M890.7 1796.3l-28 110.2 14-20.2-118-252.2z"/><path fill="#867258" d="M1420.3 1937.4l52.4 6.4-128.1-48.3 36.3 18z"/><path fill="#b1a691" d="M948.5 2030l5.7-16.8 80.4 132.8-39-34z"/><path fill="#4c5c4e" d="M2148.6 1451.9l-70.5-22.3-58.4 28.5 60.2 95.1z"/><path fill="#adb68e" d="M453 1530.9L266.6 1368l50.6-54.1 125.1 163.4z"/><path fill="#262925" d="M1136.7 2051l-85.1-65-85-80.8-42.1-186.3z"/><path fill="#f0f3ee" d="M1139.1 1089l18.6 212.5-69.4-147.3 40.2 78.2z"/><path fill="#533a22" d="M1148 1836.9l-34 8.6-54-264.5 56.6 108.2z"/><path fill="#c9c1b1" d="M965.8 1956L768 1938.9l63-24.3 31.9 93z"/><path fill="#3c4736" d="M610.7 1513.9l-3.5 139-143 96.4-46.8 292.1z"/><path fill="#cbc3b4" d="M853 2035.7l114.4-143.4L956 1984l-42.5-45.1z"/><path fill="#bfa68d" d="M1006.3 1482.2l157.1 18.7-225.5 26 218.8-79z"/><path fill="#1a2f01" d="M555.4 903l-33.2-128.2-100 192.2 48.8 61.8z"/><path fill="#eadbc4" d="M1199 1592.1l-94.8-260.3 103.6 348.5-29.7 101.4z"/><path fill="#6a6c3c" d="M541.4 1179.6l111 10.3 37.8-127.8-130.4-69z"/><path fill="#404c1a" d="M357.4 1099.8l36-46.8 214.8-152.3 68.5 115z"/><path fill="#aaa28a" d="M953 2119.2l-95.4 99.7-20.2 111.1h23.9z"/><path fill="#6382a6" d="M1593.9 2051.3l-66.3 81.9 33.5 125 13-123.3z"/><path fill="#171a15" d="M553.3 1932l271.4-51.7-48.5 68.3-65.6 39.5z"/><path fill="#0f0e02" d="M88.4 1769.5l360.3 18.8 1.8-118.4-381.7 378.2z"/><path fill="#70615e" d="M955.6 1085.3l24-12.6-86.4 247.2 113.4-221z"/><path fill="#443331" d="M933.7 903.1l-29.2-24.6-17 484.9L948 989.6z"/><path fill="#546e47" d="M886.6 1027.8l-61-79-77.5 70.9 61.6 215.6z"/><path fill="#b5af54" d="M402.3 1644.5l-106.1 10 2.2-39.8 7-118.7z"/><path fill="#9f9686" d="M982.1 1965.6l53.1 28.5 85.6 287.2-114.8-369.7z"/><path fill="#3c472a" d="M1560 1816.1l27.6 8.8 114.2-204.8-41.3-80.2z"/><path fill="#265100" d="M1810.6 379.7l6.6 195.6-64.8-89-126.6-45.3z"/><path fill="#514631" d="M1095.7 869.4l349.8-66.5-497.4 62.7-53.3-46.3z"/><path fill="#56634c" d="M2082.4 938l-124.7 90 26.6-198 108.1-79.8z"/><path fill="#4f727c" d="M1623.5 1514.5l.3-222.6-46.6 40.2-46.7 145.5z"/><path fill="#0d2001" d="M1363.8 570.5l-38.4 54.4-47.8-67.2 10.3-90.7z"/><path fill="#193508" d="M642 256l194-71.6 21-65.8-212.5 38.2z"/><path fill="#e5d0b8" d="M1188.3 1953.5l134.7 66.9 6.8.8-158-96.2z"/><path fill="#c7ab88" d="M1125.2 1695.8l127.7 113 106.2 77.7-123.7-76z"/><path fill="#4d602d" d="M684.2 1276l-129.4-37 81.6-75.4 75.1 82z"/><path fill="#fcf5e6" d="M1139.4 1381.2l-2.3 131.3 56.5-40.8-115.1-77.8z"/><path fill="#40453e" d="M291.1 2115.3l155.3 65-63-145.1-124.5 286z"/><path fill="#665132" d="M1275.8 1991.4l35.1-45.2 1 34.7-116.8 33.7z"/><path fill="#ccbba4" d="M1531.1 2132.4l-71.5 30.2-4.7 12.5 3.4 14.7z"/><path fill="#313e2a" d="M2017 678l149.6-7.9 94.5 719.3 69-355.8z"/><path fill="#285800" d="M1311 451.1l-117.1-69.5-34.5-39.2L1200 507z"/><path fill="#d0cdd6" d="M1204.6 772.2l-6.3 55.5-47.7-2 43.3-46.4z"/><path fill="#172906" d="M219.5 917L340 982 95.2 1109.6l94 122.2z"/><path fill="#2b3e1a" d="M962.9 426.4l-36.6 88.2-87.1 89-6.1-107z"/><path fill="#566f2d" d="M1400.6 1023.2l64.2 44.1 35.2-108.7-96.3-2.3z"/><path fill="#4e361b" d="M995 1301.2l68.1-10-75-84.6 8.6-25.7z"/><path fill="#8e6f57" d="M1045.2 1494.3l24.7 19-69.7 80.4 47.3-115z"/><path fill="#ccc0bb" d="M901 796.5l60.4-46.2-36.1.7 81.5-62.9z"/><path fill="#2c2a1f" d="M1148.2 1974.8l-20.7 48.2-137.7-13.2 6.1 21.4z"/><path fill="#2a3423" d="M2131 994.2l-493.4 66.5-14.2-91 260.7 91z"/><path fill="#557865" d="M440.5 374.8l5.3-65-22.6-11.4-73.8 64z"/><path fill="#5c7b7b" d="M532.3 1199.5L380 1249.7l114 61.4-21.8 24.4z"/><path fill="#0e1b14" d="M1644 781.9L1537.2 864 1431 847.8l202 196.3z"/><path fill="#28310a" d="M1004.8 684l-145.3 81L877 642.3l418 72.6z"/><path fill="#414b45" d="M769.9 1803.2l-155.9 103 52.2 13.5 172.2-157.4z"/><path fill="#d1bca2" d="M1063 1010.7L953.7 999l-2.3-46.5L950 976z"/><path fill="#7a4e23" d="M1091 1765.2l50.7-162.3 18.7 91.2 5.5 48z"/><path fill="#001107" d="M57.6 489.3L33 740l28.2 92.8 85.6-163.5z"/><path fill="#566555" d="M815.1 1586.2L678.5 1654l33.4-135.1 38.7 174.6z"/><path fill="#021300" d="M313.7 235l-71.4 151.8 152.6 38-31.3 120z"/><path fill="#6a6261" d="M923 894.6l24-73.4 112.6-62.3-54.3-9.6z"/><path fill="#21241d" d="M966.7 1904.8l167.4 67 35.5 174 65-44.3z"/><path fill="#654e32" d="M1001.9 1293.7l-22 108 83.6-177.8 42.1 87.5z"/><path fill="#1d2d0c" d="M1232.5-133l1.3 415 136.2.6-176.8-346z"/><path fill="#26271c" d="M873.4 2168.4L844.7 2330l16.7-253.2 87.3 40.5z"/><path fill="#718d51" d="M552.5 1404.2l-4.5-153.1 232.7 64.5-22-40.2z"/><path fill="#747e71" d="M2201.5 1156.2L2059 890.7l119.9-11.8-56.1 227.1z"/><path fill="#514f36" d="M492.2 2069l62-79.9-37 97.8-113.5-2.5z"/><path fill="#857260" d="M931.3 1231.3l75-104-47.2 123 267.4 157.7z"/><path fill="#384a0f" d="M532.2 1628.8l-18.8 29.8-204 98.6-54.2-18.8z"/><path fill="#192621" d="M264 342.6l-34.7 69.8-86.9 5.7 47.4-113.8z"/><path fill="#51636b" d="M662.4 2131l25.3-27.3 21.5-11.3-16.1 88.2z"/><path fill="#91826e" d="M1139 1882.3l-58-50.6 275.1 136.2-422.3-157.7z"/><path fill="#c9bdbc" d="M1132.8 711.5l116.2 98-102.5-96.4L1049 733z"/><path fill="#382f29" d="M925.8 1479.2l8.8-92.1 85.7-134.7 4 67.7z"/><path fill="#e3dacb" d="M1350.5 1858l-78.5-74.8 166.2 115.1 4.5 33.6z"/><path fill="#4c663e" d="M981.8 571.8L926 604.3l-55.7-52.8 97.7-47.1z"/><path fill="#2d3b28" d="M2005 1710.7l-112.8-79.2 201.1-59.8 10.3 132.2z"/><path fill="#798383" d="M808 1676l-245 129 114.3-187 88.3 174.1z"/><path fill="#364b23" d="M1670 1177.6l-76.5 9.3-37 42.6 158.6 135.2z"/><path fill="#05211e" d="M737.2 177.4l-129-28.4 59.5 3.2 293-285.2z"/><path fill="#232e16" d="M1636.4 1691l54.3 417.1-115-276.1 478.1-125.8z"/><path fill="#7d6553" d="M1375.4 2057.2l-142.3-46.3 147.4 35.7 90 161.3z"/><path fill="#364541" d="M1371.6 1839.1l-82.2-113.4 59.5 112.1 65.3 16.7z"/><path fill="#1f2c0e" d="M1325 842.4l-5.4 55.9 163.6-206.7-34-127z"/><path fill="#617c91" d="M1988.4 2127.8l122-67.4-78.9-127.8 17.4 34.9z"/><path fill="#4e6856" d="M1636.3 1396.1l-28-15.5 68.3 146.2 60.4-142.7z"/><path fill="#20170c" d="M1120.1 1829l-158.3-165.8 108.1 95 63 48z"/><path fill="#3d4c1a" d="M1236.5 1238.4l-132-220.8 166.2 24.7-24.6 115z"/><path fill="#413e35" d="M1006.4 2174.7l-70.6 9.3 30.2-23.5-146.3-16.4z"/><path fill="#40504c" d="M1434.7 1673l135.8 71.7-24-59-45.7-294.3z"/><path fill="#395800" d="M1525.3 340.4l53.7-67 155.3 376-107.6-108.2z"/></g></svg>