<svg version="1" xmlns="http://www.w3.org/2000/svg" width="598.667" height="598.667" viewBox="0 0 449.000000 449.000000"><path d="M302 22.7c-.8.9-1.5 2.7-1.6 4 0 1.3-.9 4.2-2 6.5-1.4 3.1-1.5 4.3-.6 4.6.7.2.9.9.5 1.5-1.3 2.2-1.7 8.3-.8 14.7.4 2.5.6 5.2.5 6 0 .8-.2 6.2-.3 12-.1 5.8-.7 11.2-1.2 12.1-1.8 2.8-5.5 3-8.1.4-3.3-3.3-5.9-3.6-5.8-.8.1 1.6-.4 2.3-1.7 2.3-1.5 0-1.9-.8-1.9-3.8 0-4.6-.8-5.9-4.1-6.7-3-.7-3.8.5-3.4 4.8.6 5-6.3 8.1-9.5 4.2-.6-.7-1.2-4.5-1.3-8.4-.1-6.7-1.1-8.8-3.3-7.3-.6.4-1 4.3-1 8.7.1 6.8-.2 8-1.6 8.3-1.6.3-1.8-.6-1.8-7.9 0-6.6-.3-8.4-1.7-9.5-1.5-1.1-1.6-1.5-.4-2.3 1.1-.7.4-1.4-2.8-3l-4.1-2.2 2.6-4.4c1.6-2.9 2.3-5.2 1.9-6.5-.5-1.5 0-2.2 1.9-3 2.3-.8 2.6-1.5 2.6-5.9 0-6.6-.7-7-6.9-3.4-.2.2-.5 2.3-.6 4.8-.3 5.4-2.6 7.8-6.5 6.9-3.6-.8-4.1-1.6-4.3-7.1-.1-4.5-.3-5.1-2.2-5.1-2 0-2.2.5-2 5.4.1 5.8-.6 8.1-2.4 7-.6-.4-1.1-3.6-1.1-7.6 0-7.3.4-6.8-5.8-8.5-1.5-.4-1.7.3-1.8 6.6 0 8-1.7 10.5-6.4 9.4-3.6-.9-4-1.6-4.2-7.3-.2-2.9-.5-5.2-.8-5.2-1.1 0-4.2 6.1-3.7 7.3.6 1.6-1 5.7-2.3 5.7-.5 0-1-1.4-1-3 0-3.8-1-3.7-3.6.4-1.4 2.2-1.8 3.8-1.3 4.9.6 1.1.3 1.6-1.1 2-1.1.3-2 1.3-2 2.4 0 1-.7 2.7-1.5 3.7-1.3 1.7-1.3 2.2.2 3.8 1.1 1.3 1.4 2.2.7 2.6-.6.4-1 4.6-1 10 .1 8-.1 9.2-1.6 9.2s-1.8-1.3-2-8.8c-.2-4.8-.7-8.5-1.2-8.4-.5.2-1.2-.1-1.5-.6-.3-.5-1.5-1.2-2.7-1.6-2-.6-2.1-.3-2 7.6.2 7.3-.1 8.6-2 10.5-2 2-2.7 2.1-5.3 1.2-1.7-.6-3.2-1.6-3.2-2.2-.1-.7-.2-4.8-.3-9.2-.2-7.1 0-8.2 2.1-10.3 2.3-2.3 2.1-2.7-1.7-3.4-.9-.2-2.3.4-3.1 1.2-1.2 1.1-1.3 1.9-.4 3.6 1.4 2.7 1.1 17-.4 18.8-1.9 2.3-5 2.5-7.3.6-1.8-1.4-2.2-2.8-2.2-8-.1-4.5-.5-6.5-1.5-6.8-1-.3-1.2.1-.9 1.6.4 1.2 0 2.3-.7 2.6-.8.3-1.3 2.2-1.3 4.8 0 7.1 0 7.1-2.7 6.4-1.5-.4-2.5-.2-2.5.4 0 .6-1 .8-2.5.4-1.8-.4-2.5-.2-2.5.9 0 2.1-2.4 3.9-3.7 2.6-.6-.6-1.9.4-3.8 3.2-4.1 5.9-4.1 6.9.5 6.9 5.4 0 6.3 1.6 6.2 11.7 0 9.3-1 11.3-5.8 11.3-2.9 0-4.7-2.4-5-6.8-.3-6.2-.4-6.6-.9-6-.3.3-.8 2.7-1 5.4-.6 5.7-1.1 6.4-6.2 7.5-10 2.2-13.3 3.4-13.9 5.1-.3 1-1.3 1.8-2.3 1.8-1 0-3.1 1.2-4.5 2.7-1.5 1.5-3.7 2.8-4.9 2.9-1.2.1-3.4.6-4.9 1.2-2.8 1.1-2.8 1.2-2.8 10.7 0 8.8-.2 9.6-2.4 11-1.8 1.2-3 1.3-5 .6-1.4-.6-2.7-1.4-2.7-1.8-.1-.5-.2-2.3-.4-4.1-.4-6.3-2.8-5.1-4 2-.8 4.7-2.2 5.7-3.5 2.6-.9-1.9-.9-1.7-.4 1.2.4 1.9.6 6.1.6 9.2-.1 4.6.2 5.6 1.3 5.1 1.4-.5 2 1.7 1.6 5.3-.1.6.8 1.9 1.9 2.9 1.9 1.8 2 1.7 2.1-.1.1-1 .1-2.3 0-2.8-.4-1.9 3.1-5.6 5.2-5.6 5 0 5.8 1.7 5.5 12-.3 8.8-.5 9.5-2.7 10.6-2.6 1.3-7 .1-7.2-2-.4-5.6-1.5-8.6-3.4-8.6-1.3 0-1.4.4-.5 2 .7 1.4.7 2 0 2-1.9 0-1 2.7 1.6 4.6 3.9 2.8 5.3 4.3 7.9 8.3 1.3 2 4 5.3 6 7.4 3.5 3.8 3.6 3.9 6.1 2.2 1.4-.9 2.8-1.4 3.1-1.2.3.3.5 3.8.5 7.8 0 5.2.5 8 1.7 9.6.9 1.2 1.8 2.3 2.1 2.3.3 0 .5-3.9.4-8.6-.1-7.3.2-8.8 1.8-10.4 1.1-1 3-1.7 4.1-1.4 4 .7 4.8 2.6 4.9 11.9.1 9.8-1.1 12-6.3 11.3-2-.3-2.6-.1-2.2 1 .3.7.7 2.1.8 3 .6 6.2 1.8 9.1 4 9.6 2.6.7 4 3.7 3.6 7.5-.3 2.7 1.3 4.1 4.9 4.1 2.1 0 2.5-.5 2.6-3 .1-1.9-.3-3-1.2-3-.8 0-1.4-.7-1.4-1.5s.6-1.5 1.4-1.5c.8 0 1.7-.8 2-1.7 1.2-3 2.9.3 2.8 5.2-.2 3 .2 4.5 1 4.5 2.3 0 3.3-1.4 3.5-4.9 0-1.8.5-3.7 1-4.2 1.5-1.5 5.4-1.9 7.4-.9 1.4.8 1.9.6 2.4-.9.7-2.4 7.4-5.2 13.6-5.7 2.5-.2 5.8-.8 7.3-1.4 1.5-.5 3.8-1 5.1-1 1.3 0 3.1-1 3.9-2.2 1.4-2 1.4-2.4-.1-4-1.9-2.1-2.6-15.9-1-19.5 1.2-2.8 5.2-3.5 7.9-1.3 1.7 1.3 2.1 2.9 2.2 7.1.1 7 2 7.1 2.1 0 0-4.3.5-5.7 2.4-7.2 2.9-2.3 3.3-2.4 6.2-.1 1.5 1.3 2.2 3 2.2 5 0 3 1.5 4.6 1.9 1.9 0-.6.2-1.7.3-2.2.2-.6.3-1.8.4-2.7.2-3.1 7.7-4.1 9.4-1.2.7 1.2 1.5 1 4.8-.6 2.2-1.2 4.4-1.8 4.9-1.5.5.3 3 .1 5.5-.5 3.9-.9 5.3-.7 9 .9 2.4 1.1 4.6 1.7 4.8 1.4.3-.3 2.2-.8 4.1-1.3 3.2-.7 3.9-.5 6 2 1.3 1.6 2.7 2.6 3 2.3.3-.4.6.3.6 1.3 0 2.3 1.8 4.4 3.7 4.4.7 0 1.3-1.1 1.3-2.5 0-1.6-.6-2.5-1.5-2.5-.8 0-1.5-.4-1.5-.9 0-1.2 4.9-4.3 5.8-3.7.5.3.8 3.7.7 7.6-.1 3.9.2 7.3.7 7.6.4.3.8 1.6.8 3s.7 2.7 1.8 3.1c2.3.8 6.2 4.4 6.2 5.7.1 1.8 3.7 5.6 5.3 5.6.7 0 3.8-.8 6.8-1.9 4.7-1.6 5.9-1.7 8-.5 1.4.7 3 2.4 3.7 3.8.6 1.5 1.7 2.3 2.4 2.1 2.4-1 5 2 5.3 6.1.2 2.1.4 4.2.4 4.6.1.5.5.8 1.1.8.5 0 .9-2.1.8-4.7-.1-4.8 1.7-7.3 5.2-7.3 3.6 0 5.4 2.6 5.6 8.1.2 3 .3 5.7.3 6 .1.7 4.8 2.9 6.1 2.9.6 0 1-2.4 1-5.4 0-4.1-.4-5.5-1.6-6-1.4-.5-1.2-1 1-3.1 1.5-1.4 3.1-2.3 3.5-2.1.4.3.7 4.1.6 8.6-.1 4.4.3 8.4.8 8.7.5.3 2.7.6 4.8.7l3.9.1v-6.1c0-4.9-.4-6.3-1.7-6.8-1.5-.6-1.3-1 1.2-3.1 1.7-1.2 3.3-2.1 3.7-1.9.4.2.6 4.1.5 8.5-.1 4.4 0 8.4.3 8.9s1.7 1.1 3.1 1.5c3.9 1 6.3-2.4 6-8.2-.1-2.8-.8-5.1-1.8-5.8-1.5-1.2-1.2-1.6 4.4-4.8.9-.6 1.1.8 1 5.4-.2 3.3 0 6.2.4 6.4.3.3 1.5-.2 2.5-1s2.9-1.5 4.2-1.5c2.7 0 3.1-3.4.5-4.4-1.5-.6-1.3-1 1.2-3.1 3.7-2.8 4.6-2.4 4.2 2-.5 4.1.4 5.8 2.6 4.9 1-.4 1.7-1.7 1.7-3.4 0-1.5.6-3.3 1.4-3.9.7-.6 1.9-3.2 2.7-5.8.7-2.5 2.6-6.1 4.2-8 1.6-1.8 2.4-3.3 1.9-3.3-.6 0-1.4.4-1.7 1-.9 1.5-5.2 1.2-6.9-.6-1.2-1.2-1.6-3.7-1.6-10.3 0-9.7.8-11.3 5.7-11.3 3.9 0 5.1 2.4 5 9.8-.1 3.9.2 6.3.8 6.1.6-.2 2.2-2.5 3.7-5.2 2.4-4.4 2.5-5 1-6.1-1.4-1-1.3-1.2.6-1.8 1.2-.4 2.2-1.2 2.2-1.7s.7-.9 1.5-.9 1.5.5 1.5 1.1c0 4 7.5-10.5 8.6-16.6 1.2-7 .8-14.7-.9-16-1.3-.9-1.2-1.4 1-3.3 2.5-2.2 4.9-2.1 4 .2-.3.7-.1 1.9.4 2.7 1.3 2.1 1.2-3.3-.2-6.8-1-2.5-1.6-6-1.8-10.5-.1-1-.8-1.5-1.8-1.3-3.6.6-5.3-2.4-5.3-9.3 0-6.5-1.6-13.2-3.2-13.2-.4 0-.8 4.9-.8 11 0 10.2-.1 11-1.9 11-1.8 0-1.9-.8-1.9-8.1 0-6.7-.3-8.2-1.8-9.4-1.8-1.3-1.8-1.4.1-2.1 3.3-1.2 3.6-2.7 1-5.4-1.6-1.7-2.5-3.9-2.7-7-.2-3.2-.7-4.5-1.8-4.5-.8 0-2.1-.4-2.7-.8-.8-.5-1.3-.4-1.3.2 0 1.7-5.7 1.3-7.4-.5-1.1-1-1.6-3.4-1.6-6.9 0-3-.5-5.7-1-6-.6-.4-.8-1.5-.5-2.4.3-1-.1-2.4-1-3.1-1.7-1.4-1.5-2.3-1.8 12-.2 6.4-.5 7.5-2 7.8-1.7.3-1.8-.4-1.7-7 .2-10.5.2-10.8-1.5-10.8-2.2 0-1.8-1.8.6-2.5 2-.7 2-.7.2-2.5-1-.9-2.1-1.5-2.6-1.3-.4.2-1-.3-1.3-1.1-.3-.8-2.8-2.2-5.5-3.1-4-1.4-4.9-2.1-4.9-4 0-1.3-.5-2.5-1.1-2.7-.5-.2-1.2-1.9-1.5-3.8-1.1-8.2-1.5-9.8-2.9-10.4-1.7-.6-1.8-.2-1.7 7.1.1 4.6-.2 5.3-1.8 5.3-1.8 0-2-.7-2-8.4 0-6.5-.3-8.5-1.5-9-2.1-.8-1.9-2.3.5-2.9 1.6-.4 2-1.3 1.8-4.6-.1-2.3-.5-4.1-.9-4.1s-2.1-1.3-3.8-3c-2.8-2.5-3.5-2.8-5.7-1.8-2.2 1-2.8.8-5.4-2.2-2.5-2.8-3-4.2-3-8.7 0-3.9-.4-5.5-1.5-5.9-1.1-.5-1.3-1-.5-1.9.8-.9.6-1.4-.5-1.9-1.7-.6-1.7-.6-1.8 9.9 0 6.5-1 9.1-2.9 7.9-.4-.3-.8-4.3-.8-9 0-6.8-.3-8.4-1.5-8.4-2.2 0-1.8-1.2 1.2-3.6 2.5-1.9 2.6-2.4 1.5-4.8-1.3-3-2.1-3.2-4.2-.9zm-97.9 41c.1.5.2 5.6.3 11.5.1 9.6 0 10.8-1.6 10.8-1.5 0-1.8-1.2-2-8.8-.2-6.3-.6-8.6-1.5-8.5-.7.2-1.3-.4-1.3-1.2 0-.8.6-1.5 1.4-1.5.8 0 1.6-.7 2-1.5.6-1.5 2.5-2.1 2.7-.8zm13 1.5c.1 1.3.2 6.5.3 11.5.1 8.2-.1 9.3-1.6 9.3-1.6 0-1.8-1.1-1.8-8.5 0-6.9-.3-8.5-1.5-8.5-2.1 0-1.9-.8.8-3.6 2.8-3 3.7-3 3.8-.2zm13.1-1c.2.7.3 5.8.3 11.3 0 8.7-.2 10-1.7 10.3-1.6.3-1.8-.6-1.8-8.1 0-6.6-.3-8.6-1.5-9.1-1.9-.7-2-2.6-.1-2.6.8 0 1.6-.7 2-1.5.7-1.8 2.2-2 2.8-.3zm13.8.3c1.6 1.9 2.1 16 .7 19.2-1.3 3-7 3.2-8.9.4-1.7-2.4-1.5-17.5.2-19.6 1.6-2 6.4-1.9 8 0zm65.1.1c1.7 2.1 2.2 14.8.7 18.6-1 2.6-2.3 3.3-5.8 2.8-3.3-.4-4.1-2.6-4.2-11.5-.2-7.5.1-8.9 1.7-10.1 2.5-1.9 6-1.8 7.6.2zm12-.9c.1.5.2 5.6.3 11.5.2 9.8.1 10.8-1.6 10.8-1.6 0-1.8-1-1.8-8.4 0-6.5-.3-8.5-1.5-9-2-.7-1.9-2.6 0-2.6.9 0 1.8-.7 2.1-1.5.6-1.6 2.3-2.1 2.5-.8zm-155 37.9c.7.8 1.2 5 1.2 10.1 0 7.2-.2 8.8-1.8 9.9-2.6 1.9-5.9 1.7-7.6-.4-1.6-1.8-2-14.8-.6-18.9 1.2-3.3 6.3-3.7 8.8-.7zm39.2.5c1.7 2.4 1.5 17.2-.3 19.3-.7.9-2.5 1.6-4 1.6-4.2 0-5.6-3.1-5.5-12.4.1-6.8.4-8.1 2.3-9.6 2.5-2.1 5.7-1.6 7.5 1.1zm65.8.7c.7 8.5.3 16.6-.9 18.3-1.5 2.2-5 2.5-7.7.5-1.6-1.1-1.9-2.7-1.8-10.2 0-7.7.3-9 2.2-10.5 1.8-1.4 2.7-1.6 5.1-.7 1.7.5 3.1 1.7 3.1 2.6zm25.6-.6c1.6 1.8 1 17.2-.6 19.2-1.6 1.9-5.1 2.1-7.5.3-1.5-1.1-1.8-2.8-1.8-10 0-9.4.3-10.4 3.6-11.7 2.2-.8 4.5 0 6.3 2.2zm26.5.2c0 .6.2 4.6.3 8.9.2 8.5-1.1 11.7-4.8 11.7-5.1-.1-6.4-3.1-5.7-13.7.4-6.9.8-7.9 2.9-8.9 2.6-1.3 7-.1 7.3 2zm-171.1-1.7c0 .5.1 5.5.2 11.2.2 7.7-.1 10.5-1.1 10.9-2.2.8-2.5-.4-2.3-8.7.1-6.5-.1-8.1-1.5-8.9-1.5-.9-1.5-1.1.2-3 1.9-2 4.3-2.8 4.5-1.5zm26 .5c.1 1.6.1 16.5 0 19.5-.1 1.3-.7 2.3-1.6 2.3-1.2 0-1.5-1.7-1.5-9.1 0-5.3-.4-8.8-.9-8.4-2.2 1.3-2.1-1.7.1-3.5 2.7-2.3 3.8-2.5 3.9-.8zm14 .4c.9 1.2 1.4 4.4 1.3 10.2 0 7.1-.3 8.7-1.9 9.8-2.5 1.9-6 1.8-7.6-.2-1.8-2.2-1.8-17.6 0-19.8 1.7-2.1 6.5-2.1 8.2 0zm25.3 9.1c-.2 13.1-.1 12.3-1.9 12.3-1.2 0-1.5-1.6-1.5-8.5s-.3-8.6-1.7-9.4c-1.6-.8-1.5-1.1.7-3 1.4-1.1 3-2 3.5-2.1.6 0 1 4.1.9 10.7zm13.1.9c0 9.5-.2 10.9-1.8 11.2-1.5.3-1.7-.6-1.7-8.7 0-7.4-.3-9.1-1.5-9.1-.8 0-1.5-.3-1.5-.6 0-1 4.5-4.3 5.5-4 .6.1 1 4.8 1 11.2zm13-.4c0 9.9-.3 11.3-1.8 11.6-1.5.3-1.7-.6-1.7-8.2 0-7-.3-8.7-1.7-9.5-1.6-.8-1.5-1.1.7-3 1.4-1.1 3-2 3.5-2.1.7 0 1 4.2 1 11.2zm13 .4c0 9.5-.3 10.9-1.8 11.2-1.5.3-1.7-.7-1.7-8.7 0-7.4-.3-9.1-1.5-9.1-.8 0-1.5-.3-1.5-.6 0-1 4.5-4.3 5.5-4 .6.1 1 4.7 1 11.2zm26-.4c0 9.9-.2 11.3-1.7 11.6-1.6.3-1.8-.6-1.8-8.7 0-7.4-.3-9.1-1.5-9.1-.8 0-1.5-.3-1.5-.6 0-.9 4.4-4.3 5.5-4.4.7 0 1.1 4.1 1 11.2zm26 .4c0 9.6-.2 10.9-1.7 11.2-1.6.3-1.8-.6-1.8-8.7 0-7.4-.3-9.1-1.5-9.1-.8 0-1.5-.3-1.5-.6 0-1 4.5-4.3 5.5-4 .6.1 1 4.8 1 11.2zm26.8-10.1c2 1.9 1.8 17.4-.2 19.9-1.6 1.9-5.1 2.1-7.5.3-1.5-1.1-1.8-2.7-1.7-10.2.1-4.8.6-9.4 1.2-10.2 1.5-1.7 6.4-1.7 8.2.2zm12.3 9.7c-.1 10.1-.3 11.3-1.9 11.6-1.1.2-1.8-.2-1.6-1 .1-.7.1-4.8 0-9.1-.1-6.1-.4-7.7-1.6-7.7-2.2 0-1.8-1.8.5-2.5 1.1-.3 2-1.1 2-1.6s.6-.9 1.3-.9c1.1 0 1.3 2.5 1.3 11.2zm-247.4 36.2c.1 6.3-.3 11.1-1 11.8-1.8 1.8-2.8-2.1-2.7-10 .2-5.4-.1-7.2-1.1-7.2-.8 0-1.4-.7-1.4-1.5s.5-1.5 1.1-1.5c.6 0 1.7-.7 2.6-1.5.8-.9 1.7-1.4 2-1.2.2.3.5 5.3.5 11.1zm13.8-9.8c1.5 1.5 1.5 19.3-.1 20.8-1.2 1.2-5.9 1.3-7.5.1-1.5-1-1.9-2.9-2-10-.1-7.5.1-9 1.8-10.7 1.4-1.4 2.7-1.8 4.6-1.3 1.5.4 2.9.9 3.2 1.1zm13.2.7c.9 1.4 1 3.1 1 11.6 0 7.6-2.1 10.7-6.6 9.5-3.7-.9-4.7-4-4.2-13.1.3-6 .8-7.9 2.2-9 2.1-1.5 6.4-.9 7.6 1zm13-.5c1.4 1.4 1.4 17.7-.1 20-1.1 1.8-5.7 2.2-7.8.6-1.5-1-1.8-2.8-1.8-10.4 0-7.9.3-9.4 1.9-10.6 2-1.4 6.2-1.2 7.8.4zm12-.9c1.8.3 2.6 8.6 1.9 18.8-.3 3.9-7.2 5.1-9.7 1.7-.7-.8-1.1-4.9-.9-10 .2-10.5 1.4-11.9 8.7-10.5zm13 0c2 .2 3.1 14.3 1.5 19.2-.9 3-3.8 4.2-7.2 2.9-2.8-1.1-3.1-2.5-3-12.4.1-8.5 1.5-11 5.9-10.1 1.2.2 2.4.4 2.8.4zm13.2 9.8c.1 5.4-.2 10.6-.7 11.6-1.6 3.5-2.7.4-2.7-7.9 0-6.8-.3-8.4-1.5-8.4-.8 0-1.5-.3-1.5-.7 0-1.1 5.2-5.4 5.8-4.8.3.2.6 4.9.6 10.2zm13.9-8.7c2.3 2.1 1.1 20.8-1.2 21.1-.3 0-1.5.2-2.7.4-1.2.3-2.9-.2-4-.9-1.5-1.2-1.8-2.8-1.8-10.6-.1-8 .2-9.4 1.9-10.6 2-1.5 6.1-1.2 7.8.6zm12.1 9.7c-.2 13-.1 12-1.9 12-1.2 0-1.5-1.7-1.5-8.9s-.3-8.8-1.5-8.8c-.8 0-1.5-.3-1.5-.7 0-1 5.4-5.2 6-4.8.3.2.5 5.2.4 11.2zm14-9.6c1.4 1.3 1.4 17.8 0 19.7-1.6 2.2-7.4 2-8.7-.4-.6-1-1.1-5.5-1.1-9.9-.1-6.3.2-8.3 1.6-9.7 1.7-1.7 6.4-1.6 8.2.3zm13.1.1c.5.4 1 4.9 1 9.8-.1 10.7-1.5 12.7-8.6 11.1-1.5-.3-2.5-5.3-2.3-12.4.1-6.3.5-8 2-9.2 1.9-1.4 6-1.1 7.9.7zm11.9 10c-.2 12.6-.1 11.9-1.9 11.2-1.2-.5-1.5-2.5-1.5-9 0-6.8-.3-8.4-1.5-8.4-2.2 0-1.8-1.1 1.2-3.7 1.5-1.3 2.9-1.9 3.2-1.4.4.5.6 5.6.5 11.3zm13.2-.4c-.1 9.9-.8 12.8-2.8 11.6-.4-.3-.8-4.3-.8-9 0-6.8-.3-8.4-1.5-8.4-.8 0-1.5-.3-1.5-.6 0-1.3 4.5-5 5.5-4.7.7.2 1.1 4.5 1.1 11.1zm26 .2c0 9.9-.2 11-1.8 11s-1.8-1-1.8-8.4c0-6.8-.3-8.5-1.6-9-1.5-.6-1.4-.9.7-2.9 1.3-1.3 2.9-2.2 3.5-2 .6.2 1 4.5 1 11.3zm13.7-10.1c1.5 1.5 1.6 18.6.2 20-2 2-6.3 2-8.1 0-2.4-2.6-2.3-18.8.2-20.6 1.8-1.3 6.1-1 7.7.6zm12.2 9.8c-.3 13-.2 12.4-2 11.7-1.2-.5-1.5-2.5-1.5-8.9 0-6.9-.3-8.4-1.7-8.9-1.5-.6-1.3-1 1.2-3.1 1.7-1.2 3.3-2.2 3.6-2 .3.2.5 5.3.4 11.2zm13.8-9.8c1.6 1.6 1.6 18.6 0 20.2-1.7 1.7-7.3 1.6-8.4-.2-.5-.8-.9-5.2-.9-9.8 0-6.3.4-8.9 1.6-10.2 1.7-1.9 5.8-1.9 7.7 0zm12.3 9.9c0 10-.7 12.9-2.8 11.6-.4-.3-.8-4.3-.8-9 0-6.8-.3-8.4-1.5-8.4-.8 0-1.5-.3-1.5-.7 0-1.1 5.4-5.2 6-4.6.3.2.5 5.3.6 11.1zm14.1-9.1c1.2 1.5 1.6 15.3.5 18.1-.9 2.5-5.2 3.4-7.8 1.7-2.2-1.4-2.4-2.2-2.4-10.2 0-6.5.4-9.1 1.6-10.4 1.8-2.1 6.3-1.6 8.1.8zm13.1 0c.7 1.1 1.2 4.7 1.1 9.6-.1 6.3-.5 8.3-2 9.8-2.1 2.1-4.8 2.1-7.3 0-2.3-2-2.3-17.7 0-20.3 2-2.1 6.3-1.7 8.2.9zm-92.3 9.2c0 9.7-.2 11-1.7 11.4-1.6.5-1.8-.4-1.8-8.4 0-7.2-.3-8.9-1.5-8.9-.8 0-1.5-.4-1.5-.9 0-1 4-4 5.5-4 .6-.1 1 4.1 1 10.8zm104.2 0c0 8.2-.3 11.1-1.3 11.5-2 .8-2.2-.2-2.2-8.8.1-6.6-.2-8-1.7-8.9-1.7-.9-1.6-1.1.6-2.8 4.3-3.3 4.7-2.7 4.6 9zM100.1 176c.3 15.6 0 20-1.6 20-1.7 0-1.7.2-1.9-10-.1-5.4-.4-7.4-1.3-7.3-2.1.5-1.5-1.7 1-3.8 3.1-2.5 3.7-2.4 3.8 1.1zm13.9-1c.6 1.1 1.1 5.7 1.2 10.2.1 7.2-.1 8.3-2.1 9.9-1.8 1.4-2.7 1.6-5.1.7-3.5-1.2-3.2-.3-3.5-10.3-.3-9.5 1-12.5 5.5-12.5 1.9 0 3.3.7 4 2zm12.1.5c0 1.4.1 5.4.1 9 0 11.6-.1 11.7-1.9 11.3-1.4-.2-1.6-1.6-1.6-8.3 0-6.1-.4-8.3-1.6-9.2-1.4-1-1.3-1.4.9-3.2 3.3-2.7 4-2.6 4.1.4zm13.9-1c.7.9 1.2 4.7 1.2 10s-.5 9.1-1.2 10c-1.4 1.7-5.7 2-7.9.6-2-1.3-2.4-16.8-.5-19.9 1.7-2.6 6.5-3 8.4-.7zm12.5-.2c1.5 1.2 1.8 2.8 1.8 10 0 5.5-.5 9.2-1.3 10.2-1.9 2.3-6.7 1.9-8.4-.8-1.8-2.9-1.6-16.8.3-19.1 1.6-2 5.1-2.1 7.6-.3zm13.5.3c.9 1 1.3 4.6 1.4 10.1 0 7.7-.3 8.8-2.2 10.4-1.9 1.4-2.8 1.6-5.2.7-1.7-.5-3.1-1.7-3.1-2.6-.7-9-.3-16.6.9-18.3 1.6-2.3 6.4-2.5 8.2-.3zm12.4-.3c1.6 1.1 1.9 2.8 1.9 10 0 5.6-.4 9.1-1.2 10.1-1.9 2.2-6.7 2-8.4-.3-1.8-2.6-1.6-17.3.2-19.5 1.6-1.9 5.1-2.1 7.5-.3zm13.7.3c1.8 2.2 1.8 17.6 0 19.8-1.7 2-6.5 2.1-8.2 0-1.8-2.2-2-16.8-.2-19.4 1.7-2.4 6.5-2.7 8.4-.4zm12.4 10.2c.1 10-.1 11.2-1.7 11.2-1.5 0-1.8-1.2-2-8.8-.2-6.3-.6-8.6-1.5-8.5-2.1.5-1.4-2.5.7-3.2 1.1-.3 2-1.1 2-1.7 0-.5.5-.8 1.2-.6.9.3 1.3 3.8 1.3 11.6zm13.6-10.2c1.7 2.1 1.8 17.7 0 19.7-1.9 2.4-5.8 2.6-7.8.5-2.2-2.5-2.5-17.6-.4-20.2 1.7-2.1 6.5-2.1 8.2 0zm12-.9c.1.5.2 5.6.3 11.5.1 9.7 0 10.8-1.6 10.8s-1.8-1-1.8-8.1c0-6.6-.3-8.5-1.7-9.6-1.4-1.1-1.5-1.6-.5-2 .7-.3 1.8-1.1 2.5-1.9 1.3-1.5 2.6-1.8 2.8-.7zm14.2 1.3c1.8 2.5 1.6 17.2-.3 19.4-1.8 2.2-6.6 2-8.2-.3-1.7-2.4-1.5-17.5.2-19.6 1.8-2.2 6.6-1.9 8.3.5zm13.1.2c1.7 2.9 1.5 17-.4 19.3-1.6 2-6.4 1.9-8.1-.1-1.7-2.1-1.7-17.7.1-19.9 1.9-2.3 6.7-1.9 8.4.7zm12.1 9c0 9.9-.2 11.3-1.7 11.6-1.6.3-1.8-.6-1.8-8.2 0-7-.3-8.7-1.7-9.6-1.4-.8-1.5-1.3-.5-1.7.7-.3 1.8-1.1 2.5-1.9 2.7-3 3.2-1.3 3.2 9.8zm12.7-10c.3.7.4 5.8.4 11.3-.1 8.6-.3 10-1.9 10.3-1.5.3-1.7-.6-1.7-8.1 0-6.9-.3-8.6-1.6-9.1-1.4-.5-1.3-1 .8-3.1 2.6-2.8 3.4-3 4-1.3zm13.3 10.6c0 10.1-.1 11.2-1.7 11.2-1.6 0-1.8-1-1.8-8.5 0-6.9-.3-8.6-1.7-9.5-1.4-.8-1.5-1.3-.5-1.7.7-.3 1.8-1.1 2.5-1.9 2.5-2.8 3.2-.5 3.2 10.4zm13.1 0c.1 10.3 0 11.2-1.7 11.2s-1.9-.9-1.9-9c0-7.3-.3-9-1.5-9-2.2 0-1.8-1.8.5-2.5 1.1-.3 2-1.1 2-1.7 0-.5.6-.8 1.3-.6.8.3 1.2 3.7 1.3 11.6zm13.5-10.1c2.1 2.4 2.2 17.3.1 19.5-1.8 2.2-6.5 2.3-8.1.4-1.6-1.9-1.7-16.6-.2-19.4 1.4-2.7 6.2-3 8.2-.5zm12.6 9.8c0 10.5-.2 11.5-1.9 11.5-1.6 0-1.8-.9-1.8-9 0-5-.3-8.9-.7-8.8-1.5.5-1.3-1.2.5-3.1 3.4-3.7 3.9-2.5 3.9 9.4zm13.7-9.3c1.6 2.4 1.7 15.6.2 19-.9 2.1-6.5 2.5-8.4.6-.8-.8-1.2-4.6-1.2-10.5 0-7.7.3-9.4 1.8-10.2 2.9-1.7 6.1-1.2 7.6 1.1zm12.3 9.3c-.1 10.3-.3 11.5-1.9 11.5-1.6 0-1.8-1-1.8-9 0-5-.3-8.9-.7-8.8-1.5.5-1.3-1.2.5-3.1 3.5-3.9 4.1-2.7 3.9 9.4zM374 174c1.1.7 1.5 3.1 1.6 10 .2 7.9-.1 9.4-1.8 10.9-2.2 2.1-5.6 1.8-7.5-.7-2-2.4-1.7-17.6.3-19.6 1.7-1.8 5.1-2.1 7.4-.6zm13.2.7c2.2 2.6 2.4 17.6.2 19.7-2.2 2.3-7.1 2-8.4-.3-1.7-3.2-1.3-17.7.6-19.5 2.1-2.1 5.7-2 7.6.1zM139 210.8c1.9 1.6 2.2 2.7 2.2 10.6.1 7.6-.2 9.1-1.7 10.2-2.7 2-6.2 1.7-7.8-.6-1.2-1.7-1.6-10.5-.8-18.8.1-1.1 3.2-2.9 5.2-3.1.4-.1 1.7.7 2.9 1.7zm26.3.4c2.1 2.1 2.3 3.2 2.1 10.8-.3 9-1.3 11-5.9 11-3.8 0-5.1-2.8-4.9-11 .2-10.6.2-10.6 2.7-11.8 3.2-1.5 3.5-1.5 6 1zm103.2-1c1.4.6 2.6 1.8 2.6 2.7 1.1 14.7-.1 20.1-4.5 20.1-4.9 0-5.9-2-5.8-11.6 0-7.9.2-9 2.2-10.6 2.6-2.1 2.3-2.1 5.5-.6zm15.7 3.1c.7 9.4.3 16.4-1 17.9-1.9 2.2-5.5 2.3-7.6.2-1.8-1.8-1.8-1.5-1.8-11.3-.1-6.5.2-7.7 2.1-9.2 2.9-2.3 8-.8 8.3 2.4zm64.5-1.9c.4.6.8 4.7.9 9.1.3 9.1-1.1 12.5-5.1 12.5-4.6 0-5.6-2.3-5.3-12.3.3-8.4.5-9.2 2.6-10.3 2.6-1.3 5.8-.8 6.9 1zm-222.6.8c.6 14.6-.5 22.7-2.7 20.5-.4-.4-.7-4.5-.7-9.2 0-6.8-.3-8.5-1.3-8.1-2.3.9-1.6-2 .9-3.7 3-2.2 3.7-2.1 3.8.5zm26.1-1c.3 1.1.2 18.4-.1 21-.1.3-.8.5-1.8.4-1.4-.2-1.6-1.6-1.5-8.9 0-6.8-.3-8.7-1.4-8.7-.8 0-1.4-.7-1.4-1.6 0-.8.4-1.3.9-1 .5.3 1.4-.1 2.1-.9 1.5-1.8 2.7-1.9 3.2-.3zm143.3 10.1c.1 10.1-.1 11.3-1.7 11.4-1.6.2-1.8-.8-1.8-8.8 0-7.2-.3-8.9-1.5-8.9-.8 0-1.5-.3-1.5-.6 0-.9 4.3-4.3 5.5-4.4.6 0 1 4.4 1 11.3zm13.1 0c.1 10.3 0 11.3-1.7 11.4-1.7.2-1.9-.7-1.9-8.8 0-7.2-.3-8.9-1.5-8.9-.8 0-1.5-.3-1.5-.6 0-.9 4.4-4.3 5.5-4.4.7 0 1.1 4.2 1.1 11.3zm13 0c.1 9.5-.1 10.6-1.8 11-1.6.5-1.8-.2-1.8-8.4 0-7.2-.3-8.9-1.5-8.9-.8 0-1.5-.3-1.5-.6 0-1 4.5-4.3 5.5-4 .5.1 1 4.9 1.1 10.9zm13.1 0c0 10.2-.2 11.3-1.9 11.4-1.6.2-1.8-.7-1.8-8.8 0-7.2-.3-8.9-1.5-8.9-2.1 0-1.9-.9.8-3.1 4.1-3.4 4.5-2.6 4.4 9.4zm26-1.1c-.1 5.7-.6 10.9-1 11.5-1.9 3-2.7.7-2.7-7.7 0-7.3-.3-9-1.5-9-2.2 0-1.8-1.8.5-2.5 1.1-.3 2-1.1 2-1.6s.6-.9 1.4-.9c1.1 0 1.4 2 1.3 10.2z"/><path d="M238.5 67.2c-.3.7-.4 4.4-.2 8.3.1 5.4.5 7 1.7 7s1.5-1.5 1.5-7.9c0-5.5-.4-8.1-1.2-8.3-.7-.3-1.5.1-1.8.9zM304.3 66.8c-.7.4-1.1 3.4-1 8.2.2 6.2.5 7.5 2 7.8 1.5.3 1.7-.6 1.7-8.2 0-8.4-.3-9.3-2.7-7.8zM160.2 111.2c.2 6.6.6 8.3 1.8 8.3 1.2 0 1.5-1.6 1.5-8 0-6.9-.2-8-1.8-8.3-1.6-.3-1.8.4-1.5 8zM199.4 104.3c-.3.8-.4 4.5-.2 8.3.2 5.3.6 6.9 1.8 6.9 1.2 0 1.6-1.7 1.8-8.3.2-6.9 0-8.2-1.3-8.2-.9 0-1.8.6-2.1 1.3zM264.7 103.8c-.8 1.1-.3 15 .5 15.7 1.8 1.8 2.8-1.3 2.8-8.6 0-6.2-.3-7.9-1.4-7.9-.8 0-1.7.3-1.9.8zM290.6 105.2c-.3 1.3-.4 5-.3 8.3.1 4.6.6 6 1.7 6 1.2 0 1.6-1.7 1.8-8.3.2-6.8 0-8.2-1.2-8.2-.9 0-1.8 1-2 2.2zM316.9 103.2c-.7 1.3-.5 14.8.1 15.9 1.6 2.5 3.2-.5 3.2-6.2 0-9.3-.1-9.9-1.7-9.9-.8 0-1.6.1-1.6.2zM186.2 111.2c.2 6.6.6 8.3 1.8 8.3 1.2 0 1.5-1.6 1.5-8 0-6.9-.2-8-1.8-8.3-1.6-.3-1.8.4-1.5 8zM329.6 104.7c-.9 3.3-.4 13.8.7 14.5 2.1 1.3 2.7-.4 2.7-8.3 0-6.2-.3-7.9-1.4-7.9-.8 0-1.7.8-2 1.7zM108.6 139.7c-.3.4-.6 4.2-.6 8.5 0 6.9.2 7.8 1.8 7.8 1.7 0 1.9-.9 1.9-8 0-5.4-.4-8.1-1.3-8.4-.6-.2-1.5-.2-1.8.1zM121.6 139.7c-.3.4-.6 4.1-.6 8.4 0 5.9.3 7.8 1.5 8.3 1.7.6 1.8.3 2-9.4.1-4.7-.2-7.1-1.1-7.4-.6-.2-1.5-.2-1.8.1zM135.3 139.7c-.9.3-1.3 2.9-1.3 8.4 0 7 .2 7.9 1.8 7.9s1.9-.9 2-7.3c.1-7.6-.5-9.7-2.5-9zM147.7 139.7c-.4.3-.7 4.1-.7 8.4 0 5.8.4 7.8 1.4 8.2 2 .8 2.6-1.5 2.5-9-.1-5.8-1.6-9.3-3.2-7.6zM160.6 139.7c-1.3 1.3-.6 15 .8 16.2 2.1 1.8 2.6.2 2.4-8.2-.1-5-.6-7.8-1.4-8.1-.6-.2-1.5-.2-1.8.1zM186.7 139.7c-1.2 1.1-.8 16.1.4 16.9 1.9 1.1 2.9-1.8 2.9-8.7 0-4.4-.5-7-1.3-7.8-.8-.6-1.7-.8-2-.4zM213.2 140.3c-.6.7-1.1 4.5-1.1 8.5 0 6.3.2 7.2 1.8 7.2s1.9-1 2-7.9c.1-7.9-.7-10.3-2.7-7.8zM225.6 139.7c-.3.4-.6 4.1-.6 8.3 0 8.1.3 9.2 2.6 8.3 1-.4 1.4-2.5 1.4-8.3 0-5.8-.4-7.9-1.4-8.3-.8-.3-1.7-.3-2 0zM291.4 139.8c-1.3.9-1.5 13.1-.3 15.5 1.8 3.3 2.9.6 2.9-7.3 0-7.7-.6-9.6-2.6-8.2zM317.2 140.6c-1.6 3.2-1.3 14.4.4 15.1 2.4.9 2.7-.2 2.6-7.8-.1-7.6-1.3-10.5-3-7.3zM342.7 140.7c-.2.5-.4 3.9-.3 7.8.1 5.6.5 7 1.8 7.3 1.2.2 1.7-.5 2-3 .6-6.2-.3-12.8-1.7-12.8-.8 0-1.6.3-1.8.7zM356.4 140.2c-1.4 2.1-1.2 14.7.2 15.9 1.9 1.6 2.5-.4 2.5-8.3 0-7.1-1.1-10.2-2.7-7.6zM108.7 176.6c-.4.4-.7 4.3-.7 8.6 0 7 .2 7.9 1.8 7.6 1.4-.3 1.7-1.5 1.7-8.2 0-7.3-.9-9.9-2.8-8zM134.7 176.7c-.4.3-.7 4.2-.7 8.5 0 7 .2 7.9 1.8 7.6 1.3-.3 1.8-1.6 2-6.2.5-8.4-.8-12.3-3.1-9.9zM147.7 176.6c-.4.4-.7 4.3-.7 8.6 0 7 .2 7.9 1.8 7.6 1.4-.3 1.7-1.5 1.7-8.2 0-7.3-.9-9.9-2.8-8zM160.7 176.7c-.4.3-.7 4.2-.7 8.5 0 7 .2 7.9 1.8 7.6 1.4-.3 1.7-1.5 1.8-7.3.2-8.7-.6-11.1-2.9-8.8zM173.5 177.3c-.4.8-.5 4.5-.3 8.3.2 5.3.6 6.9 1.8 6.9 1.2 0 1.5-1.5 1.5-7.9 0-5.5-.4-8.1-1.2-8.3-.7-.3-1.5.2-1.8 1zM186.7 176.6c-.4.4-.7 4.3-.7 8.6 0 7 .2 7.9 1.8 7.6 1.4-.3 1.7-1.5 1.7-8.2 0-7.3-.9-9.9-2.8-8zM212.7 176.7c-1 .9-.8 13.6.2 15.2 1.8 2.8 3.2-.1 3.1-6.2-.3-8.8-1.1-11.2-3.3-9zM238.5 177.2c-.2.7-.3 4.4-.2 8.3.2 5.8.5 7 2 7.3 1.6.3 1.8-.4 1.5-7.9-.2-5.5-.7-8.4-1.5-8.7-.7-.2-1.5.2-1.8 1zM251.5 178.2c-.3 1.3-.5 5.1-.3 8.3.2 4.8.7 6 2.1 6.3 1.6.3 1.8-.4 1.5-7.9-.2-5.3-.7-8.4-1.5-8.6-.7-.3-1.5.6-1.8 1.9zM316.6 178.2c-.3 1.3-.4 5-.3 8.3.2 4.8.5 6 2 6.3 1.3.3 1.7-.4 1.8-2.5.2-5.3-.1-12.6-.7-13.4-1-1.6-2.4-.9-2.8 1.3zM342.6 177.7c-.4 1.5-.2 11.9.3 14.5 0 .5.7.8 1.5.8 1.1 0 1.5-1.8 1.8-7.1.3-6.9-.4-9.9-2.2-9.9-.5 0-1.1.8-1.4 1.7zM368.8 177.2c-.2.7-.4 4.4-.4 8.3.1 5.8.4 7 1.9 7.3 1.7.4 1.8-.2 2-11.4.1-4.5-2.4-7.4-3.5-4.2zM381.7 177.4c-.3.9-.2 12.7.2 14.8 0 .5.8.8 1.6.8 1.5 0 1.7-.8 1.7-7.5 0-8.1-.2-9.2-1.7-9.2-.8 0-1.6.5-1.8 1.1zM134.2 221.2c.2 6.6.6 8.3 1.8 8.3 1.2 0 1.5-1.6 1.5-8 0-6.9-.2-8-1.8-8.3-1.6-.3-1.8.4-1.5 8zM160.2 221.2c.2 6.6.6 8.3 1.8 8.3 1.2 0 1.5-1.6 1.5-8 0-6.9-.2-8-1.8-8.3-1.6-.3-1.8.4-1.5 8zM264.4 221.2c.1 6.7.4 8.3 1.6 8.3 1.2 0 1.6-1.7 1.8-8.3.3-7.5.1-8.2-1.6-8.2-1.8 0-2 .7-1.8 8.2zM277.6 213.9c-1.1 1.8-.3 15 1 15.5 2 .8 2.4-.5 2.4-8.6 0-6.1-.3-7.8-1.4-7.8-.8 0-1.7.4-2 .9zM342.8 214.2c-.7 2.1-.3 14.6.5 15.4 1.1 1.1 2.5-.8 2.7-3.6.6-7.1-.1-13-1.4-13-.8 0-1.6.6-1.8 1.2zM212.4 34.2c-.3.4-.4 3.3-.3 6.3.2 4.6.5 5.5 2.1 5.5s1.8-.8 1.7-6.3c-.1-4.7-.5-6.4-1.6-6.4-.8 0-1.6.4-1.9.9zM239.8 38.1c-2.3 1.3-2.5 7.4-.3 8.3 2 .7 2.7-1.2 2.3-5.7-.3-3.1-.5-3.4-2-2.6zM160.6 67.5c-.3.9-.6 4.8-.6 8.7 0 6.1.2 6.9 1.8 6.6 1.4-.3 1.7-1.5 1.7-8.2 0-5-.4-8.1-1.1-8.3-.6-.2-1.4.3-1.8 1.2zM173.7 66.6c-.4.4-.7 4.3-.7 8.6 0 7 .2 7.9 1.8 7.6 1.4-.3 1.7-1.5 1.7-8.2 0-7.3-.9-9.9-2.8-8zM264.3 76.7c.2 4.4.6 5.8 1.7 5.8 1.9 0 2.7-8 .9-10.1-2.1-2.6-2.8-1.5-2.6 4.3zM292.2 80.2c-1.6 1.6-1.5 2.8.3 2.8.8 0 1.5-.9 1.5-2 0-2.3-.2-2.4-1.8-.8zM134 110.8c0 6.3.3 8.1 1.5 8.6 2.1.8 2.4-.6 2.2-8.9-.2-5.8-.5-7-1.9-7.3-1.6-.3-1.8.6-1.8 7.6zM368 116.9c0 .6.4 1.3 1 1.6.6.3.7-.1.4-.9-.7-1.8-1.4-2.1-1.4-.7zM83.2 145c-.6 1.1-1.2 4-1.2 6.6 0 3.8.3 4.5 1.8 4.2 1.4-.3 1.7-1.5 1.9-6.6.1-6.5-.4-7.5-2.5-4.2zM394.8 147.7c-.3.7-.3 3.4.1 7 0 .7.8 1.3 1.7 1.3 1.3 0 1.5-.7.9-3.8-.7-3.8-2-6-2.7-4.5zM82.5 177c-.8 1.2-.8 15-.1 15.8.3.2 1.2.2 1.9-.1 1.9-.7 1.9-15.8 0-16.4-.6-.2-1.4.1-1.8.7zM187.3 213.2c-.6.7-1.1 2.7-1.1 4.4 0 2.7.3 3.1 1.9 2.7 2-.6 2.6-4.6 1-7.1-.6-1.1-1-1.1-1.8 0zM107.9 216.7c-.2 7.2.3 11.8 1.2 12.8 1.8 1.8 2.7-1.5 2.5-8.9-.1-5.8-.4-7.1-1.9-7.4-1.4-.3-1.7.4-1.8 3.5zM173 221c0 7.8.1 8 2 7 1.8-1 2.1-1.9 1.8-7.8-.2-5.4-.6-6.7-2-7-1.6-.3-1.8.6-1.8 7.8zM199 215c0 1.8.3 1.9 2 1 1.1-.6 2-1.5 2-2 0-.6-.9-1-2-1-1.3 0-2 .7-2 2zM368.9 213.7c-.1.5-.2 4-.3 8-.2 5.1.2 7.4 1.1 7.7 1.7.7 2.3-.5 2.4-5.6.2-8.8-.1-10.8-1.6-10.8-.8 0-1.6.3-1.6.7zM108.6 249.7c-.3.4-.6 1.7-.6 3 0 3.1 3.2 2.8 3.6-.4.3-2-1.8-3.8-3-2.6zM134.5 250.1c-1.1 1.7.1 2.1 1.5.4.8-.9.8-1.5.2-1.5-.6 0-1.4.5-1.7 1.1zM304.2 249.9c-2.3 1.4-1 11.1 1.4 11.1 1 0 1.4-1.4 1.4-5.4 0-5.6-.7-7-2.8-5.7zM292.6 251.5c.4.8.8 1.5 1 1.5.2 0 .4-.7.4-1.5s-.4-1.5-1-1.5c-.5 0-.7.7-.4 1.5zM215.5 271.1c-6.2 1.1-9.1 2.5-13.3 6.4-9.6 8.6-12 28.4-5.2 42.8 3.5 7.7 5.9 10.5 21.7 25.9 10.1 9.8 13.5 15.8 13.5 23.9.1 4.5-.4 6.7-1.9 8.7-2.6 3.5-8.1 4.9-12.3 3.2-4.7-2-6.1-4.8-6.3-13.4l-.2-7.6h-9.1c-6.4 0-9.3.4-9.6 1.2-.3.7-.3 4.4-.2 8.3.7 13.7 4.9 22.2 13.4 26.9 5.5 3 8.5 3.7 16.8 3.7 13 0 21.2-4.4 26.3-14.2 4.5-8.8 4.7-24.1.5-33.9-2.2-5.3-7.5-12.7-12.4-17.5-2.8-2.8-7.9-7.8-11.5-11.3-3.5-3.5-7.7-8.6-9.2-11.3-4.4-8.2-4.1-19 .8-22.4 2.2-1.5 8.2-2 11.2-.8 2.6 1 5.3 7.8 4.8 12.3-.6 4.6 0 4.9 11.2 4.7l8-.2v-4c0-10-3.6-20.5-8.7-25.2-5.7-5.3-18.3-8.1-28.3-6.2zM282.2 271.5c-7.4 1.7-13.1 6.1-16.4 12.6-3.2 6.3-3.8 9.1-3.9 18-.1 15.3 3.8 22.6 22.3 41 7.1 7.1 13.2 14.1 14.3 16.4 2.4 5.2 3 12.3 1.5 17-2.2 6.6-11.6 8.3-16.9 3-2.3-2.3-2.7-4.1-3-15.8l-.1-2.7h-19.1l.2 7.7c.4 21.7 10.7 32.6 30.4 32.4 13.2-.1 22.8-5.7 27-15.7 2.1-5.1 3.2-15.8 2.3-22.9-1.3-10.4-5.7-17.5-19.3-31-17.3-17.3-19-20-19.4-30.1-.2-5.3.1-6.5 2.4-9.2 2.3-2.7 3.4-3.2 7-3.2 6.9 0 9.6 2.9 10.2 11.2l.6 6.6 9.4-.1h9.5l-.5-8.1c-.9-15.1-8-24.8-20.1-27.2-5.3-1.1-13.6-1-18.4.1zM50.3 271.8c-2.5.3-3.3.9-3.7 3-.6 2.6-2.7 15.7-8.1 49.7-1.4 8.8-2.7 17.1-2.9 18.5-.3 1.4-.7 4.3-1.1 6.5-1.2 8.5-6.6 42.2-7.4 46.2l-.9 4.3h9.4c5.2 0 9.4-.3 9.5-.8 0-.4.2-1.6.4-2.7s.6-3.8.9-6c.3-2.2.9-6 1.2-8.5.3-2.5.8-4.7 1-4.9.6-.6 22.3-.7 24-.1.9.3 1.5.9 1.3 1.3-.1.4.2 3.1.6 6 .4 2.8.9 6.8 1.1 8.7.9 7.2.5 7 11.5 7H97l-.5-3.3c-.6-4.9-1.4-9.6-4.6-29.2-1.7-9.9-3.2-19.6-3.4-21.6-.2-2-1.3-9-2.4-15.5-1.1-6.5-2.3-13.6-2.7-15.8-.3-2.1-.8-4.8-1-6-.2-1.1-.7-4.1-1-6.6-.3-2.5-.8-5.4-1-6.5-.2-1.1-.7-4-1-6.5-.3-2.5-.7-5.2-.9-6-.2-.8-.7-3.5-1-6-.4-2.5-.8-4.6-1-4.8-.4-.4-22.4-.8-26.2-.4zm11.7 30c0 1.5.7 6.5 1.5 11.2.8 4.7 1.7 10.5 2 13 .3 2.5 1 7 1.5 10 1.5 8.4 2.4 16.1 2.5 19.9v3.3h-6.7c-12.4-.1-12-.1-11.4-2 .2-.9.7-4 1.1-6.7.3-2.8.8-6.1 1-7.5 1.1-6.8 1.4-8.8 2-13 .6-4.4 1.1-7.9 2-13.1.3-1.4.7-4.3 1-6.5 1.2-9.7 1.8-12.3 2.6-11.8.5.3.9 1.7.9 3.2zM126.4 272.1c-12.8 1.2-17.9 7.7-18.9 24-1.8 28.7-1.9 29.1-6.8 30.8-1.6.6-3.3.8-3.8.6-.4-.3-.8 3.2-.7 7.8l.1 8.4 3.6.9c5.7 1.4 5.8 1.5 7.7 31.9 1 16.7 7.6 23.3 22.9 23.1l8-.1v-8c-.1-7.4-.2-8-2.1-8.1-8.5-.4-10-3.1-10.9-19.4-1-19.1-2.1-22.6-8.1-26.2l-3.5-2.1 3-1.5c3.7-1.7 6.9-6.6 7.5-11.3.3-1.9.8-8.7 1.1-15.2.5-11.4 1.8-16.5 4.6-18.2.6-.4 2.7-.8 4.7-1l3.7-.2v-15.7l-3-.6c-1.6-.3-5.8-.3-9.1.1z"/><path d="M154.3 271.8l-3.3.3v8c0 4.3.3 7.9.8 8 11.3 1.2 11.4 1.5 12.7 26.3.6 11.4 2.3 15.9 7.3 19.2l3.2 2.2-3.4 2.1c-4.6 2.9-6.5 8.1-7.1 19.9-.3 5.3-.8 11.8-1 14.4-.7 7.8-3.1 10.8-8.9 11l-3.7.1.3 8.1.3 8.1 8.6-.1c7.1-.1 9.3-.5 12.2-2.3 7.6-4.7 9.2-9.4 10.3-29.6.3-7.1.8-13.6.9-14.5.2-.8.4-2.2.4-3 .2-2.6 1.7-4.1 5.7-5.5l3.9-1.3v-15.1l-3-.7c-6.2-1.3-7.1-3.9-8-23.4-.3-7.4-1.2-15.8-2-18.5-1.4-5.1-5.9-10.4-10-12-2.9-1-12.4-2.1-16.2-1.7zM369.9 272l-2.3.6-.1 61.9c0 34.1.3 62.7.7 63.7.7 1.4 3.7 1.6 27.8 1.6l27 .1v-18.5l-16.2.1c-9 .1-16.9-.1-17.5-.3-1-.3-1.3-5-1.3-18.8V344H415.7v-9c-.1-9-.1-9-2.6-9.1-1.4 0-7.7-.1-13.8-.1H388v-35.5l15.8-.1c8.6 0 16.5-.1 17.5-.1 1.5-.1 1.7-1.2 1.7-9.1v-9h-3.7c-37.6-.4-47.6-.4-49.4 0zM327.7 280.7c-1.8 1.7-.5 2.9 2.9 2.5 5.3-.6 6.2 1.3 5.9 12.8l-.2 9.6 3.3-.1c1.8 0 3.5-.3 3.8-.5.4-.5.9-9.8.7-14.8-.1-1.3-.5-2.1-1-1.7-.5.3-1.2.1-1.5-.4-.5-.8 4.3-5.1 5.7-5.1.3 0 .4 4.3.3 9.5 0 5.9.3 9.4.9 9.2.6-.1.9-1 .9-2-.1-.9.3-1.7.8-1.7.6 0 .7-.7.4-1.5-.3-.9.1-1.8.9-2.1 1.1-.5 1.5-2.3 1.5-6.9 0-3.5-.3-6.6-.7-6.8-.5-.3-3.5.4-6.8 1.5-5.4 1.7-6.3 1.7-9.5.4-5-2.1-7.5-2.7-8.3-1.9z"/><path d="M329.9 286.2c-.6 2.7-.6 3.9.2 4.4.5.3.9 2 .9 3.7 0 1.8.5 3.9 1 4.7.7 1.1 1-.5.8-5.4-.2-4.5-.7-7.1-1.5-7.4-.7-.2-1.3-.2-1.4 0zM333 314.7c-.1 2.9-.1 61.1 0 76.5v8.8h20v-88h-20v2.7zM28 419.8c-.6 3.1-1.4 6.5-1.6 7.4-.3 1-.1 1.8.5 1.8s1.1-.7 1.1-1.6c0-1 .7-1.4 2.3-1.2 1.2.2 2.1.9 2 1.6-.2.6.2 1.2.8 1.2.8 0 .9-1.1.4-3.3-.3-1.7-.9-4.9-1.2-6.9-.9-6-3-5.5-4.3 1zm3 2.3c0 1.7-.4 2.8-1 2.4-.5-.3-1-1.7-1-3.1 0-1.3.5-2.4 1-2.4.6 0 1 1.4 1 3.1zM35.2 420.6c.2 5 .7 7 2 7.8 1.3.8 2.1.7 3-.2 1.3-1.3 1.9-13.2.6-13.2-.4 0-.8 2.7-.8 6 0 4.7-.3 6-1.5 6s-1.5-1.3-1.5-5.9c0-3.3-.5-6.3-1-6.6-.7-.5-1 1.6-.8 6.1zM44.3 414.7c-2 .7-1.5 4.4.9 7 1.2 1.3 2.3 3 2.4 3.8.3 2.1-2.3 1.9-3.5-.3-.9-1.5-1-1.5-1.1.5 0 1.3.8 2.4 2 2.8 4.7 1.5 6-3.5 2-7.4-2-1.8-2.6-3.1-2-4.1.7-1.2 1.1-1.2 2.5 0 1.5 1.3 1.7 1.2 1.4-.4-.4-1.9-2.3-2.7-4.6-1.9zM50 415.2c0 .4.6.8 1.4.8 1 0 1.4 1.3 1.4 4.7 0 7.5.1 8.9 1 7.6.4-.6.7-3.6.6-6.7 0-4 .3-5.6 1.3-5.6.7 0 1.3-.4 1.3-.8s-1.6-.8-3.5-.8-3.5.4-3.5.8zM58 421.7c0 4.2.4 7.2.9 6.9.5-.4.8-1.7.6-3.1-.2-1.9.2-2.5 1.7-2.5 1.2 0 1.9.6 1.7 1.7-.3 3.1.1 4.4 1 3.9.8-.6.7-5.4-.3-6.3-.2-.3-.1-1.5.4-2.7 1.1-2.9-.1-4.7-3.4-5l-2.6-.3v7.4zm4.7-4.1c.8 2.2-1.5 4.4-2.6 2.5-1-1.6-.4-4.1 1-4.1.5 0 1.2.7 1.6 1.6zM68 416.4c-1.3 3.5-2.3 13.7-1.1 11.1.5-1.1 1.3-3.7 1.6-5.9.3-2.1.8-3.6 1-3.4.9.9 1.3 5.8.4 5.8-.5 0-.9.5-.9 1.1 0 .5.4.8.9.5.5-.3 1.2.4 1.6 1.7 1.3 4.5 1.7-.5.5-6.4-1.5-6.8-2.6-8.1-4-4.5zM74.8 414.7c-.3.4-.4 3.7-.4 7.3.2 6.3.2 6.5 2.9 6.8 1.5.2 2.7-.1 2.7-.7s-.9-1.1-2.1-1.1c-1.8 0-2-.5-1.8-6 .2-5.6-.3-8.2-1.3-6.3zM81.6 414.9c-.9 1.4-.4 13.1.5 13.7.5.3.9-2.9.9-7 0-7.4-.3-8.6-1.4-6.7zM86.6 415.7c-.3 1-.8 3.6-1.1 5.8-.4 2.2-.9 4.9-1.1 6-.5 1.9-.4 1.9.9.2 1.8-2.2 4.5-2.2 4.9 0 .3 1.5.5 1.5.9.3.7-1.9-2-14-3.1-14-.5 0-1.1.8-1.4 1.7zm1.9 2.3c.3.5.1 1-.4 1-.6 0-1.1-.5-1.1-1 0-.6.2-1 .4-1 .3 0 .8.4 1.1 1zm.8 3.9c.6 2.3 0 3.1-1.8 2.5-.7-.3-1.1-1.4-.8-2.5.7-2.4 1.9-2.4 2.6 0zM93 421.7c0 4.9.4 7.3.9 6.4.5-.8.8-3.2.6-5.5l-.3-4.1 1.4 3c.7 1.6 1.3 3.5 1.4 4.1 0 .6.6 1.7 1.4 2.3 1.1.9 1.4-.1 1.5-5.9.1-3.8-.3-7-.7-7-.5 0-.8 1.8-.8 4 .2 5.3-.7 5.1-2.2-.5-1.8-6.9-3.2-5.5-3.2 3.2zM105.3 415.2c-1.7 2.2-1 11.9.9 13.1 2.9 1.9 4.8-.9 4.8-6.7 0-6.6-3-9.9-5.7-6.4zm3.7 6.3c0 4.2-.3 5.5-1.5 5.5s-1.5-1.3-1.5-5.5.3-5.5 1.5-5.5 1.5 1.3 1.5 5.5zM112.6 414.8c-.7 1.2-.1 13 .7 13.8.4.4.7-.6.7-2.2 0-2.1.7-3.2 2.3-3.9 2.3-1.1 3.3-4.1 1.9-6.3-1-1.4-4.9-2.4-5.6-1.4zm4.4 3.6c0 1.3-.7 2.6-1.5 3-1.1.4-1.5-.2-1.5-2.4 0-2 .5-3 1.5-3 .9 0 1.5.9 1.5 2.4zM120 421.7v7.3h3c1.7 0 3-.5 3-1 0-.6-1.1-1-2.4-1-1.9 0-2.2-.4-1.8-2.5.2-1.4 1.1-2.5 2.1-2.6 1.3 0 1.2-.2-.3-.8-2.5-1-2.9-5.1-.5-5.1 1 0 2-.4 2.3-.9.3-.5-.8-.8-2.4-.7l-3 .1v7.2zM127.8 414.6c-1.1 1-1 14.4.1 14.4.4 0 .8-1 .8-2.3.1-4.5.5-8.2.8-7.2.2.5.9 2.9 1.5 5.2 1.7 6.6 3 5.1 3-3.3 0-4.7-.4-7.3-1-6.9-.5.3-.7 2.3-.4 4.3.7 4.3-.3 3.8-2.5-1.4-.9-2-1.9-3.2-2.3-2.8zM138.9 416.2c-1.1 2 0 4.3 2.9 6.1 1.7 1.1 1.5 4.7-.3 4.7-.8 0-1.5-.7-1.5-1.5s-.4-1.5-.9-1.5c-1.4 0 0 4.1 1.6 4.7 1.6.6 4.3-1.4 4.3-3.2 0-.8-1.1-2.7-2.5-4.3-1.4-1.7-2.5-3.5-2.5-4.1 0-1.5 2.7-1.4 3.3.1.2.7.8 1 1.2.5 1-.9-.9-3-3-3.3-.8-.1-2 .7-2.6 1.8zM147 415.9c-1.6 3.1-1.2 10.7.6 12.2 2.8 2.3 4.8-.1 5-5.9.3-7-3.1-10.8-5.6-6.3zm4 5.6c0 4.2-.3 5.5-1.5 5.5-1.5 0-1.7-.5-1.7-3.5 0-5.9.3-7.5 1.7-7.5 1.2 0 1.5 1.3 1.5 5.5zM154.2 420.6c.2 5 .7 7 2 7.8 1.3.8 2.1.7 2.9-.1 1.3-1.3 2-13.1.7-13.9-.4-.3-.8 2.4-.8 6 0 5.2-.3 6.6-1.5 6.6-1.5 0-1.8-1.5-1.7-8.7 0-1.8-.4-3.6-.9-3.9-.6-.3-.9 2-.7 6.2zM162 421.7c0 4 .4 7.3.9 7.3s.7-1.4.6-3c-.2-2.4.1-3 1.6-3 1.1 0 1.8.3 1.8.7-.4 2.4.2 5.3 1 4.9.5-.3.5-2.1.1-4s-.4-3.9 0-4.6c.8-1.3.2-4.9-.9-5.1-5.4-.7-5.1-1.1-5.1 6.8zm4.7-4.1c.6 1.6-1.2 4.2-2.2 3.2-.3-.3-.7-1.5-1-2.7-.5-2.5 2.2-3 3.2-.5zM170.4 416.5c-1 4.1-.9 8.8.3 10.9 1.6 2.8 5.3 1.2 5.2-2.2 0-2.7 0-2.7-1.1-.5s-2.7 3.1-2.9 1.5c-.6-3-.4-10.4.2-10.8.4-.2 1.5.6 2.4 1.8l1.6 2.3-.3-2.5c-.5-3.7-4.5-4-5.4-.5zM177.9 415.9c-.4 4.5-.5 10.8-.1 11.8.5 1.5 4.8 1.7 5.7.3.4-.6-.5-1-1.9-1-2.1 0-2.6-.5-2.6-2.5 0-1.9.5-2.5 2.3-2.6h2.2l-2.2-.9c-2.9-1.2-3.1-5-.3-5 1.1 0 2-.4 2-.8 0-1.6-5-.8-5.1.7zM189.3 414.7c-2.1.8-1.5 4.3 1.3 7.5 1.8 2.3 2.2 3.4 1.4 4.2-.8.8-1.5.6-2.6-.8-1-1.4-1.4-1.6-1.4-.5.1 4.6 5.3 5.3 5.8.7.2-1.8-.4-3.3-1.7-4.5-1.2-.9-2.1-2.8-2.1-4.2 0-2.3.1-2.4 2-.6 1.7 1.5 2 1.6 2 .3 0-1.2-2.4-3.2-3.3-2.7-.1 0-.8.3-1.4.6zM196.2 415.7c-1.2 2.6-.8 11.1.6 12.5.9.9 1.7 1 3 .2 2.1-1.3 2.9-10.8 1.1-13-1.6-1.9-3.6-1.8-4.7.3zm3.9 1.8c.5 7.2.2 9-1.4 9.3-1.4.3-1.7-.5-1.7-5.2 0-4.3.3-5.6 1.5-5.6.8 0 1.5.7 1.6 1.5zM203.9 414.5c-.1 0-.2 3.3-.4 7.2-.3 7.2 1.1 10.4 1.7 4 .2-1.9.8-3.1 1.6-3 .6.2 1.2-.2 1.2-.7 0-.6-.7-1-1.5-1-.9 0-1.5-.9-1.5-2.5 0-1.8.5-2.5 2-2.5 1.1 0 2-.4 2-.9s-1.1-.8-2.5-.7c-1.4 0-2.5.1-2.6.1zM210 415.1c0 .4.6.9 1.3 1.2.9.3 1.2 2.4 1.2 6.6-.1 3.4.2 6.1.7 6.1.4 0 .8-3 .8-6.6 0-5.7.2-6.5 1.8-6.2 1.3.2 1.9 1.8 2.6 6.6 1.1 7.8 3.2 8.6 3.8 1.4.3-4.6 1.4-3.2 1.7 2.3.1 2.8 1.6 3.3 2.5 1 .8-2.2 1.9-14.1 1.2-13.4-.6.5-1.4 4.2-1.5 6.8-.1.8-.4 1.1-.8.7-.9-.8-1-1.4-1.2-5.3-.1-1.9-.4-2.4-1.2-1.6-1.2 1.2-1.7 3.4-1.8 7.7-.2 5.2-1.6.6-2.1-6.4-.1-1.4-.4-1.9-.7-1.2-.2.6-1 .9-1.6.5-1.5-.9-6.7-1.1-6.7-.2zM231.6 415.1c-.6 1.9-2.6 11.8-2.6 13 0 .6.5.7 1 .4.6-.4.8-1.1.5-1.6-.4-.5.3-.9 1.5-.9 1.1 0 2.3.7 2.6 1.5.4.8.9 1.3 1.3 1 .4-.2.2-3.2-.5-6.6-1.3-6.4-3-9.4-3.8-6.8zm1.9 8.7c-1 2.6-2.1.2-1.6-3.5l.4-3.8.9 3c.4 1.6.6 3.6.3 4.3zM237.9 416c-.4 5.9.1 13.4.7 12.7.4-.4.8-1.7.9-2.9.1-1.3.3-2.7.4-3.2 0-.5.8-.3 1.6.4s1.3 1.6 1 2c-.7 1.2.6 4.1 1.5 3.5.5-.3.5-1.8.1-3.3-.4-1.5-.6-4.3-.3-6.3.3-3.1.1-3.7-2-4.2-3.5-1-3.8-.9-3.9 1.3zm4.5.9c.9 1.4-.4 4.1-2 4.1-.9 0-1.3-.9-1.2-2.5.2-2.4 2.1-3.4 3.2-1.6zM245.9 416c-.1 1.1-.1 3.6-.1 5.5 0 7.2.1 7.5 2.6 7.5 1.4 0 2.8-.5 3.1-1 .4-.6-.5-1-1.9-1-2 0-2.6-.5-2.6-2.1 0-1.2.8-2.3 2-2.6 2.5-.7 2.7-2.1.3-1.9-1.2.1-1.8-.7-1.9-2.2-.1-1.5.4-2.2 1.7-2.2 2.8 0 2.3-1.5-.6-1.8-1.9-.1-2.5.3-2.6 1.8zM256.7 414.7c-.8 1.3-.4 14.3.4 14.3.4 0 .8-3.4.8-7.5 0-7.2-.2-8.4-1.2-6.8zM259.7 414.7c-.8 1.5-.4 13.4.4 13.9.5.3.9-1.9 1-4.8v-5.3l1.8 5.3c.9 2.9 2 5 2.4 4.6 1.1-1.1.8-13.4-.3-13.4-.6 0-.8 1.1-.4 2.5.9 3.6-1.2 3.1-2.5-.5-1-3-1.6-3.6-2.4-2.3zm5.3 7.3c0 .5-.2 1-.4 1-.3 0-.8-.5-1.1-1-.3-.6-.1-1 .4-1 .6 0 1.1.4 1.1 1zM267.9 414.2c-.5 1.8-.3 14.1.3 14.4.4.3.8-1.9.9-4.8l.1-5.3 1.4 4.4c1.5 4.8 3.3 7.5 3.5 5 .5-9.8-.2-16.1-1-9.4l-.7 5-1.2-4.2c-1-3.5-2.9-6.4-3.3-5.1zM277.2 414.8c-1.7 1.2-2 10.6-.3 12.6 3.2 3.9 5.7.9 5.5-6.7 0-5.6-2-7.9-5.2-5.9zm3.5 6.5c.2 4.2-1 6.8-2.4 5.3-.8-.8-1.3-6.8-.7-8.9 1-3.3 2.9-1.1 3.1 3.6zM284.2 418.7c.4 2.7 1 5.9 1.3 7.2 1 5.5 2.8 3.8 4.4-4.3 1.3-7.1 1.4-7.9.2-7.2-.4.3-1.2 2.9-1.6 5.8-.8 5.8-1.8 4.9-3-2.5-.3-2-1-3.7-1.4-3.7-.5 0-.4 2.1.1 4.7zM293 419.8c-.6 3.1-1.3 6.2-1.5 6.9-.2.7 0 1.5.5 1.8.6.4 1 0 1-.8 0-2.5 2.7-2.7 4.4-.4 1.5 2.1 1.5 2 1-1.8-.4-2.2-.8-4.7-.9-5.5-.2-.8-.4-2.2-.4-3.1-.1-.9-.7-1.9-1.5-2.2-1.1-.5-1.8.8-2.6 5.1zm3.2 1.6c.1 1-.3 2.1-.9 2.3-.9.3-1.3-.6-1.3-2.8 0-3.4 1.5-3.1 2.2.5zM300 415.2c0 .3.5.8 1.1 1 .7.2 1.2 2.8 1.3 6 .2 8.1 1.6 8.5 1.6.5 0-3.8.4-6.7 1-6.7s1-.4 1-1c0-.5-1.3-.8-3-.7-1.6.1-3 .5-3 .9zM307.9 414.1c-.5 2.2-.3 14.2.3 14.5.4.3.8-.5.9-1.8.2-5-.1-12.1-.6-12.6-.3-.3-.5-.3-.6-.1zM312.3 414.8c-1.1.7-1.6 4.7-1.4 10.4.1 2.9 3.5 4.8 5.3 3 1.6-1.6 1.4-12.2-.3-13.3-1.7-1.1-2.1-1.1-3.6-.1zm3.2 6.8c0 3.7-.4 4.9-1.5 4.9s-1.5-1.2-1.6-4.5c0-5.2.3-6.3 1.9-5.7.7.2 1.2 2.4 1.2 5.3zM318.9 417.2c-.2 6 0 11.1.6 11.6.3.3.5-1.9.6-4.9v-5.4l1.5 4c.8 2.2 1.7 4.6 1.9 5.4.3.8.8 1.1 1.2.7 1-.9 1.1-10.8.2-13.1-.5-1.4-.8-.5-.9 3l-.1 5-1.6-4.8c-1.8-5.5-3.3-6.1-3.4-1.5zM333.4 414.8c-1.1.7-1.9 3.3-3 10.6-.4 2.6-.2 3.6.5 3.1.6-.3.9-1 .6-1.5-1.3-2.1 2-2.1 3.7 0 2.2 2.7 2.4 2.1 1.4-4-1.1-6.4-2.1-9-3.2-8.2zm1.5 7.9c.1.7-.6 1.3-1.5 1.3-1.1 0-1.4-.5-1-1.6.3-.9.6-2.3.7-3.2 0-1.4.2-1.3.9.3.5 1.1.9 2.6.9 3.2zM338.9 415.2c-.3 3.5.2 13.2.6 13.6.3.3.5-1.6.5-4.2 0-2.9.4-4.5 1-4.1.6.3 1 1.2 1 2s.5 2.6 1.1 4.2c1.5 4 2.5 1.5 2.4-5.7-.3-7.4-1.5-9.3-1.6-2.4v4.9l-1.6-4.8c-1.5-4.5-3.2-6.2-3.4-3.5zM347 421.6c0 6.4.2 7.4 1.8 7.4 3.2 0 4.4-1.7 4.7-6.8.3-5.9-.4-7.4-3.9-7.8-2.6-.3-2.6-.2-2.6 7.2zm4.5 0c0 3.5-.4 5-1.5 5.2-1.2.2-1.5-.8-1.3-4.5.2-6.7.2-6.5 1.6-6.1.7.3 1.2 2.3 1.2 5.4zM358.7 414.8c-.2.4-.5 3.7-.6 7.4l-.2 6.8h3c1.7 0 3.1-.5 3.1-1 0-.6-1.1-1-2.4-1-1.9 0-2.2-.4-1.8-2.5.2-1.4 1.1-2.5 1.8-2.5.8 0 1.4-.4 1.4-1 0-.5-.7-.7-1.5-.4-1.1.5-1.5-.1-1.5-2 0-2 .5-2.6 2.2-2.6 1.2 0 1.8-.3 1.4-.7-1-1-4.4-1.4-4.9-.5zM365.7 414.8c-.2.4-.3 3.6-.3 7.2.1 5.4.4 6.5 1.9 6.8 3.2.6 4.7-1.7 4.7-7.4 0-2.9-.4-5.6-1-5.9-1.6-1-4.9-1.4-5.3-.7zm4.9 5.7c.1 4.9-.4 6.5-2.2 6.5-1 0-1.4-1.5-1.4-5.6 0-4.7.3-5.5 1.7-5.2 1.3.2 1.8 1.4 1.9 4.3zM373.9 414.5c-.3.5-.6 3.3-.7 6.1-.2 6.2 1.7 9.5 4.5 7.8 1.4-.9 1.9-2.7 2.1-8 .2-3.8 0-6.5-.5-6.1-.4.5-.9 2.3-.9 4-.1 1.8-.2 4.4-.3 5.9-.1 1.7-.7 2.8-1.6 2.8-1.1 0-1.5-1.6-1.7-6.8-.2-3.7-.6-6.3-.9-5.7zM382 415.9c-1.4 2.7-1.3 10.4.2 11.9 1.8 1.8 3.6 1.5 4.9-.9.8-1.5.8-2.4 0-3.2-.8-.8-1.1-.5-1.1 1.1 0 1.3-.6 2.2-1.5 2.2-1.2 0-1.5-1.3-1.5-5.5s.3-5.5 1.5-5.5c.8 0 1.5.7 1.5 1.5s.5 1.5 1 1.5c1.5 0 1.2-1.6-.6-3.4-2-2.1-3.1-2-4.4.3zM391.5 415.3c-.3.9-.7 2.5-1 3.4-.3.9-.8 3.7-1 6.2-.2 2.6-.1 3.8.2 2.8.2-.9 1.3-1.7 2.3-1.7 1.1 0 2.4.8 2.9 1.7 1 1.7 1 1.7 1.1.1 0-2.8-2.2-12.2-3.1-13.2-.5-.6-1.1-.3-1.4.7zm2.1 9.4c-.1.1-.7-.2-1.4-.6-.9-.5-1.1-1.7-.6-3.7l.8-2.9.7 3.5c.4 1.9.7 3.6.5 3.7zM397.6 414.9c-.3.5 0 1.1.8 1.4.9.4 1.3 2.1 1.2 5.6-.1 2.8.1 5.7.6 6.4.8 1.2 1.2-2 .8-8-.1-2.1.5-3.5 1.7-4.2 1-.6 1.6-1.1 1.3-1.2-3.5-.7-6-.8-6.4 0zM405 421.6c0 4.3.3 7.4.7 7 1.1-1.1 1.2-13.5.2-14.2-.5-.3-.9 3-.9 7.2zM409.1 415.4c-1.8 2.2-1 11.7 1.1 13 2.5 1.6 4-.4 4.4-5.9.6-7.1-2.4-10.8-5.5-7.1zm3.9 5.5c0 4.9-1.5 7.5-2.9 5.2-.6-.9-.7-5.9-.2-9.4.1-.4.8-.7 1.6-.7 1.1 0 1.5 1.2 1.5 4.9zM416 421.6c0 4.1.4 7.3.9 7 .4-.3.7-2.6.6-5.2-.3-5.3.6-4.8 2.4 1.3 1.8 6.5 3.1 5.1 3.1-3.3 0-4.7-.4-7.3-1-6.9-.5.3-1 2.5-1.1 4.8l-.1 4.2-1.5-4.8c-.8-2.6-1.8-4.7-2.4-4.7-.5 0-.9 3.4-.9 7.6z"/></svg>
